<?xml version="1.0" encoding="UTF-8" standalone="no"?>
<!DOCTYPE svg PUBLIC "-//W3C//DTD SVG 1.1//EN" "http://www.w3.org/Graphics/SVG/1.1/DTD/svg11.dtd">
<!-- Created with Vectornator (http://vectornator.io/) -->
<svg height="100%" stroke-miterlimit="10" style="fill-rule:nonzero;clip-rule:evenodd;stroke-linecap:round;stroke-linejoin:round;" version="1.1" viewBox="0 0 1000 500" width="100%" xml:space="preserve" xmlns="http://www.w3.org/2000/svg" xmlns:vectornator="http://vectornator.io" xmlns:xlink="http://www.w3.org/1999/xlink">
<defs/>
<g id="Ebene-1" vectornator:layerName="Ebene 1">
<g opacity="1">
<path d="M138.125 113.156C131.812 112.872 125.468 115.059 119.969 118.188C113.843 121.673 108.956 126.995 104.438 132.312C95.592 142.721 88.3909 154.428 82 166.469C73.6757 182.152 66.2724 198.372 59.6562 214.844C48.026 243.799 38.9582 273.949 34.4688 304.875C33.6169 310.743 32.94 316.654 32.4375 322.562C32.128 326.201 31.849 329.848 31.7812 333.5C31.7106 337.31 31.8833 341.134 32.0625 344.938C32.3701 351.466 32.5567 357.898 34.625 364.188C36.2949 369.265 39.2459 373.186 43.0938 376.812C47.8185 381.265 53.4086 384.546 59.875 385.625C66.1579 386.673 72.5287 385.719 78.6562 384.219C80.1712 383.848 81.7036 383.484 83.1875 383C87.9957 381.433 92.4534 378.849 96.6875 376.125C101.374 373.111 105.885 369.804 110.25 366.344C115.907 361.86 121.258 357.019 126.531 352.094C132.114 346.879 137.554 341.559 142.562 335.781C149.002 328.354 154.783 320.38 160.562 312.438C165.661 305.42 164.112 295.599 157.094 290.5C150.076 285.401 140.255 286.982 135.156 294C129.914 301.227 124.687 308.49 118.844 315.25C115.559 319.051 112.074 322.6 108.438 326.062C100.981 333.164 93.374 340.131 85.0312 346.188C82.4928 348.03 79.8947 349.818 77.1875 351.406C76.0272 352.087 74.79 352.864 73.5 353.281C72.0857 353.739 70.5793 354.039 69.125 354.344C68.1344 354.551 67.1068 354.729 66.0938 354.781C65.7364 354.8 65.5756 354.824 65.3125 354.812C65.2442 354.754 65.3303 354.803 65.1875 354.688C65.0817 354.602 64.977 354.528 64.875 354.438C64.6007 354.195 64.3534 353.945 64.0938 353.688C63.5656 351.608 63.4356 349.446 63.3438 347.312C63.2544 345.237 63.1386 343.169 63.0312 341.094C62.9095 338.741 62.8129 336.356 62.8438 334C62.8952 330.073 63.269 326.159 63.625 322.25C64.1527 316.456 64.8595 310.656 65.75 304.906C68.7101 285.793 73.5752 266.995 79.6875 248.656C86.7146 227.572 95.3739 207.061 105.25 187.156C111.102 175.362 117.495 163.666 125.812 153.406C127.217 151.674 128.668 150.007 130.188 148.375C131.368 147.107 132.594 145.797 134 144.75C134.334 145.739 134.602 146.768 134.875 147.75C135.506 150.02 136.179 152.261 136.812 154.531C137.931 158.543 139 162.649 138.656 166.844C138.204 172.365 136.558 177.75 135.438 183.156C133.437 192.805 131.128 202.393 128.938 212C127.109 220.007 132.118 227.984 140.125 229.812C148.132 231.641 156.109 226.632 157.938 218.625C159.421 212.14 160.978 205.678 162.438 199.188C163.31 195.307 164.069 191.388 164.906 187.5C165.721 183.716 166.715 179.967 167.406 176.156C168.12 172.223 168.518 168.281 168.5 164.281C168.464 156.447 166.15 148.913 164.062 141.438C162.326 135.22 160.384 129.032 156.562 123.719C154.805 121.275 152.72 119.047 150.25 117.312C148.451 116.049 146.491 115.018 144.406 114.312C142.339 113.613 140.229 113.251 138.125 113.156Z" fill="#01aaff" stroke="none"/>
</g>
<g opacity="1">
<path d="M260.812 133.25C246.733 133.492 232.972 136.911 219.812 141.75C218.142 142.364 216.529 143.126 214.875 143.781C214.209 143.154 213.583 142.489 212.938 141.844C212.742 141.648 212.416 141.625 212.156 141.531C211.654 141.351 211.172 141.171 210.656 141.031C209.661 140.761 208.653 140.595 207.625 140.531C205.957 140.427 204.33 140.644 202.719 141.062C202.548 141.107 202.377 141.139 202.219 141.219C200.812 141.926 199.338 142.567 197.969 143.344C197.523 143.597 197.162 143.937 196.781 144.281C193.834 146.942 192.093 150.537 190.531 154.125C189.313 156.925 188.286 160.008 187.938 163.125C187.932 163.155 187.942 163.188 187.938 163.219C187.86 163.938 187.801 164.656 187.812 165.375C187.771 167.201 188.06 169.039 188.688 170.844C188.085 173.632 187.552 176.44 186.906 179.219C182.774 196.993 177.94 214.615 173.875 232.406C165.72 268.092 158.248 303.914 151.094 339.812C149.143 349.602 147.273 359.419 145.375 369.219C143.86 377.041 142.316 384.928 140.125 392.594C139.552 394.598 138.806 396.511 138.031 398.438C137.965 398.538 137.88 398.619 137.812 398.719C137.531 399.133 137.163 399.672 136.906 400.031C136.402 400.737 135.879 401.451 135.375 402.156C134.228 403.76 133.03 405.433 132.312 407.281C131.974 408.152 131.504 409.008 131.406 409.938C131.167 412.209 130.591 414.645 131.312 416.812C132.378 420.014 134.029 423.208 136.562 425.438C138.838 427.44 142.071 428.064 145 428.844C146.217 429.168 147.53 428.83 148.781 428.688C149.529 428.602 150.246 428.366 150.969 428.156C154.405 427.16 157.54 424.839 160.031 422.344C162.061 420.31 163.689 417.974 165.281 415.594C165.755 414.885 166.642 413.328 167.188 412.938C170.191 410.788 173.338 408.827 176.438 406.812C185.081 401.193 193.976 395.946 203.156 391.25C210.861 387.309 218.771 383.74 226.906 380.781C231.149 379.238 235.476 377.946 239.781 376.594C245.253 374.876 250.709 373.107 256.125 371.219C258.871 370.261 261.618 369.297 264.344 368.281C269.752 367.441 275.032 365.159 278.531 360.812C281.853 356.686 283.241 351.351 283.219 346.125C283.208 343.669 282.715 341.256 282.625 338.812C282.553 336.873 282.601 334.941 282.562 333C282.516 330.667 282.431 328.333 282.5 326C282.662 320.539 283.363 315.034 284.094 309.625C285.63 298.254 287.765 286.974 289.812 275.688C291.414 266.857 292.826 258.018 294.594 249.219C297.441 235.048 300.76 220.967 303.969 206.875C304.789 203.273 305.588 199.672 306.375 196.062C306.896 193.674 307.356 191.266 308 188.906C309.041 185.092 310.256 181.322 311.156 177.469C312.779 170.526 313.333 163.258 311.406 156.312C308.831 147.031 302.328 139.959 293.094 136.938C288.528 135.444 283.815 135.264 279.094 134.688C276.718 134.397 274.352 133.963 271.969 133.719C268.26 133.339 264.54 133.186 260.812 133.25ZM263.844 164.625C267.723 164.706 271.473 165.348 275.312 165.812C277.319 166.055 279.336 166.14 281.344 166.375C281.295 167.166 281.155 167.967 281.031 168.656C280.53 171.449 279.698 174.155 278.906 176.875C276.406 185.457 274.756 194.287 272.781 203C269.755 216.35 266.656 229.694 264 243.125C261.97 253.391 260.338 263.73 258.5 274.031C255.663 289.928 252.636 305.915 251.688 322.062C251.435 326.363 251.589 330.635 251.688 334.938C251.726 336.635 251.678 338.335 251.75 340.031C247.48 341.586 243.219 343.131 238.906 344.562C232.444 346.708 225.895 348.625 219.469 350.875C212.189 353.423 205.039 356.402 198.062 359.688C190.328 363.33 182.85 367.467 175.469 371.781C176.056 368.64 176.692 365.515 177.281 362.375C178.328 356.795 179.403 351.226 180.5 345.656C184.732 324.172 189.137 302.7 193.688 281.281C197.146 265 200.588 248.732 204.406 232.531C206.217 224.848 208.164 217.185 210.094 209.531C212.867 198.529 215.564 187.502 217.938 176.406C219.011 175.935 220.078 175.459 221.156 175C228.109 172.042 235.196 169.361 242.5 167.406C249.435 165.55 256.653 164.475 263.844 164.625Z" fill="#01aaff" stroke="none"/>
</g>
<g opacity="1">
<path d="M343.75 124.188C341.664 124.184 339.629 124.822 337.656 125.5C336.548 125.881 335.579 126.631 334.625 127.312C333.935 127.805 333.344 128.395 332.75 129C331.189 130.592 330.123 132.596 329.188 134.594C326.486 140.365 324.879 146.537 323.719 152.781C322.89 157.246 322.299 161.778 321.344 166.219C320.356 170.813 319.085 175.358 317.906 179.906C315.456 189.36 312.889 198.764 310.562 208.25C306.269 225.757 302.45 243.384 298.781 261.031C295.477 276.923 292.039 292.817 288.938 308.75C286.877 319.335 285.504 330.094 281.531 340.188C278.373 348.267 282.358 357.373 290.438 360.531C298.517 363.689 307.623 359.704 310.781 351.625C312.592 346.966 314.095 342.231 315.281 337.375C316.867 330.886 317.901 324.286 319.094 317.719C320.935 307.586 323.14 297.512 325.125 287.406C329.336 265.973 333.49 244.515 338.219 223.188C341.256 209.489 344.793 195.924 348.188 182.312C349.265 177.992 350.353 173.662 351.156 169.281C351.507 167.367 351.877 165.454 352.188 163.531C359.426 160.691 363.34 152.73 360.938 145.219C360.451 143.825 360.34 142.194 360.062 140.75C359.484 137.738 358.843 134.492 357.156 131.875C356.548 130.931 355.988 129.911 355.156 129.156C353.636 127.777 352.038 126.354 350.156 125.531C348.155 124.656 345.934 124.191 343.75 124.188ZM330.5 144.781C330.498 144.775 330.53 144.775 330.531 144.781C330.546 144.843 330.548 144.907 330.562 144.969C330.542 144.909 330.52 144.841 330.5 144.781Z" fill="#01aaff" stroke="none"/>
</g>
<g opacity="1">
<path d="M447.906 93.0625C445.867 93.1392 443.808 93.612 441.844 94.5312C433.987 98.2084 430.604 107.581 434.281 115.438C434.734 116.395 435.223 117.314 435.719 118.25C435.64 118.633 435.549 119.001 435.438 119.469C435.084 120.956 434.733 122.437 434.438 123.938C433.598 128.192 432.891 132.466 432.031 136.719C429.377 149.855 426.611 162.955 423.406 175.969C417.029 201.869 409.419 227.475 403.938 253.594C402.797 259.027 401.874 264.495 400.938 269.969C391.552 249.351 380.265 229.537 370.875 208.938C367.196 200.868 364.028 192.64 360.906 184.344C358.242 177.264 355.627 170.141 353.312 162.938C352.189 159.441 351.196 155.888 350.188 152.344C350.56 150.373 350.547 148.328 350.062 146.25C350.07 146.43 350.13 146.602 350.156 146.781C350.175 146.907 350.128 146.533 350.125 146.406C350.118 146.083 350.131 145.76 350.125 145.438C350.108 144.469 350.107 143.534 350.031 142.562C349.899 140.873 349.715 139.445 349.25 137.781C347.967 133.192 345.003 129.17 340.781 126.875C336.928 124.781 332.187 124.123 327.969 125.438C327.164 125.688 326.369 125.978 325.625 126.375C324.541 126.954 323.447 127.56 322.5 128.344C321.529 129.148 320.642 130.07 319.906 131.094C319.062 132.268 318.381 133.576 317.812 134.906C317.398 135.875 317.176 136.905 316.969 137.938C316.813 138.715 316.759 139.52 316.719 140.312C316.498 144.646 318.179 148.516 319.375 152.562C319.653 153.504 319.828 154.549 320.062 155.5C320.542 157.442 321.059 159.363 321.625 161.281C324.265 170.234 327.209 179.086 330.438 187.844C333.733 196.783 336.976 205.767 340.719 214.531C344.852 224.21 349.476 233.671 354.219 243.062C361.51 257.5 369.129 271.809 375.5 286.688C378.895 294.617 382.026 302.719 384.25 311.062C386.246 318.552 387.601 326.205 388.875 333.844C389.387 336.913 389.846 340 390.406 343.062C390.04 346.269 389.705 349.574 390.438 352.75C390.613 353.513 390.78 354.27 391.062 355C391.439 355.973 391.844 356.965 392.406 357.844C393.179 359.051 394.017 360.239 395.062 361.219C396.257 362.338 397.599 363.329 399.062 364.062C400.534 364.8 402.129 365.306 403.75 365.594C405.182 365.848 406.675 365.796 408.125 365.688C409.192 365.608 410.224 365.335 411.25 365.031C412.157 364.763 413.064 364.399 413.906 363.969C418.306 361.723 421.439 357.852 422.812 353.125C423.756 349.878 423.613 346.488 423.094 343.188C423.032 342.797 422.973 342.421 422.906 342.031C422.861 341.766 422.83 341.483 422.781 341.219C422.956 339.597 422.923 337.936 423.031 336.312C423.143 334.635 423.389 332.98 423.594 331.312C424.49 324.012 425.419 316.726 426.406 309.438C427.803 299.133 429.108 288.79 430.812 278.531C432.137 270.556 433.722 262.636 435.5 254.75C442.257 224.789 451.436 195.431 458.062 165.438C460.609 153.911 463.028 142.31 465.094 130.688C465.576 127.974 466.427 125.354 466.844 122.625C467.332 119.424 467.499 116.246 467.031 113.031C466.693 110.705 465.869 108.433 464.875 106.312C464.206 104.886 463.406 103.526 462.75 102.094C459.992 96.2013 454.023 92.8324 447.906 93.0625Z" fill="#01aaff" stroke="none"/>
</g>
<g opacity="1">
<path d="M491.281 150.219C489.02 150.052 486.763 150.408 484.656 151.25C482.706 152.03 480.933 153.213 479.469 154.719C479.206 154.989 478.934 155.277 478.688 155.562C478.565 155.704 478.437 155.838 478.344 156C477.678 157.157 476.968 158.289 476.344 159.469C475.971 160.174 475.824 160.977 475.625 161.75C475.181 163.477 475.044 165.299 474.844 167.062C474.595 169.257 474.393 171.486 474.219 173.688C473.648 180.887 473.43 188.108 472.938 195.312C472.541 201.11 471.944 206.86 471.219 212.625C469.987 222.42 468.451 232.177 467.188 241.969C464.341 264.033 461.486 286.095 458.156 308.094C456.776 317.216 455.284 326.335 453.781 335.438C452.708 341.939 451.695 348.456 450.188 354.875C449.376 358.331 448.388 361.722 447.281 365.094C444.589 373.34 449.066 382.214 457.312 384.906C465.559 387.598 474.433 383.09 477.125 374.844C478.502 370.605 479.745 366.343 480.75 362C482.394 354.895 483.524 347.664 484.688 340.469C486.393 329.925 488.039 319.389 489.531 308.812C492.574 287.246 494.952 265.596 497.5 243.969C498.941 231.742 500.755 219.569 501.938 207.312C502.713 199.28 503.098 191.207 503.562 183.156C505.218 180.492 506.098 177.332 505.781 173.969C505.133 167.091 506.114 159.589 500.562 154.406C499.188 153.123 497.549 152.105 495.844 151.312C495.294 151.057 494.699 150.912 494.125 150.719C494.13 150.7 494.071 150.73 494.062 150.719C494.018 150.657 493.854 150.649 493.75 150.625C493.503 150.567 493.249 150.517 493 150.469C492.435 150.36 491.855 150.261 491.281 150.219Z" fill="#01aaff" stroke="none"/>
</g>
<g opacity="1">
<path d="M559.094 126.125C558.051 126.156 556.993 126.313 555.938 126.562C551.865 127.536 547.798 128.526 543.719 129.469C529.398 132.778 515.004 135.717 500.656 138.906C489.216 141.449 477.844 144.278 466.375 146.688C461.203 147.774 455.985 148.767 450.781 149.688C449.209 149.966 447.637 150.232 446.062 150.5C445.864 150.534 445.669 150.568 445.469 150.594C445.343 150.582 445.22 150.574 445.094 150.562C444.747 150.531 444.378 150.495 444.031 150.469C442.944 150.387 441.871 150.333 440.781 150.375C436.999 150.52 433.242 151.674 430.25 154.062C427.769 156.043 425.973 158.608 424.906 161.594C424.594 162.468 424.362 163.395 424.219 164.312C424.061 165.327 423.943 166.35 424 167.375C424.076 168.731 424.23 170.107 424.625 171.406C425.06 172.838 425.665 174.238 426.469 175.5C427.262 176.745 428.279 177.855 429.375 178.844C430.349 179.722 431.455 180.438 432.625 181.031C433.788 181.621 435.053 182.04 436.312 182.375C437.258 182.626 438.243 182.71 439.219 182.781C440.093 182.845 440.968 182.823 441.844 182.781C442.445 182.753 443.028 182.639 443.625 182.562C444.08 182.504 444.548 182.451 445 182.375C445.351 182.316 445.713 182.22 446.062 182.156C446.358 182.102 446.643 182.052 446.938 182C446.788 182.008 446.649 181.994 446.5 182C449.765 182.023 452.75 180.96 455.219 179.188C457.061 178.882 458.909 178.568 460.75 178.25C469.514 176.735 478.235 174.987 486.938 173.156C503.978 169.572 521.093 166.373 538.125 162.75C546.495 160.969 554.824 159.07 563.156 157.125C571.598 155.131 576.838 146.661 574.844 138.219C573.099 130.832 566.396 125.905 559.094 126.125Z" fill="#01aaff" stroke="none"/>
</g>
<g opacity="1">
<path d="M626.75 104.031C625.622 104.054 624.479 104.142 623.375 104.375C622.278 104.607 621.217 104.962 620.188 105.406C619.199 105.833 618.233 106.393 617.344 107C616.512 107.568 615.755 108.237 615.031 108.938C613.502 110.416 612.334 112.24 611.438 114.156C610.538 116.079 610.002 118.164 609.656 120.25C609.49 121.25 609.427 122.253 609.25 123.25C609.088 124.168 608.837 125.14 608.625 126.094C608.168 127.145 607.743 128.214 607.25 129.25C603.167 137.839 598.448 146.079 593.594 154.25C579.285 178.335 564.479 202.163 549.219 225.656C542.056 236.683 534.84 247.653 527.5 258.562C523.579 264.39 519.587 270.189 515.688 276.031C508.438 286.892 501.332 297.841 494.156 308.75C491.533 312.737 488.901 316.719 486.25 320.688C485.05 322.484 483.791 324.264 482.688 326.125C478.723 329.884 474.835 333.794 473.781 339.438C473.593 340.447 473.472 341.473 473.438 342.5C473.284 347.071 475.291 351.73 478.594 354.875C479.193 355.446 479.782 356.037 480.469 356.5C481.487 357.186 482.559 357.831 483.688 358.312C484.839 358.804 486.05 359.181 487.281 359.406C488.47 359.623 489.667 359.668 490.875 359.625C491.989 359.585 493.101 359.406 494.188 359.156C497.702 358.349 500.839 356.184 503.344 353.656C504.298 352.693 505.156 351.66 506.031 350.625C506.271 350.342 506.509 350.064 506.75 349.781C506.854 349.659 506.984 349.527 507.094 349.406C507.113 349.385 507.182 349.326 507.156 349.312C511.417 345.796 513.191 340.406 512.281 335.281C513.32 333.725 514.368 332.182 515.406 330.625C523.824 317.993 532.01 305.23 540.469 292.625C550.298 277.977 560.288 263.436 569.969 248.688C576.115 239.323 582.135 229.883 588.156 220.438C581.168 248.28 573.748 276.096 569.188 304.469C568.023 311.714 567.032 318.966 566.438 326.281C565.609 336.467 565.43 346.712 564.75 356.906C564.541 360.046 564.305 363.216 563.969 366.344C563.625 369.536 563.115 372.724 562.688 375.906C561.538 384.504 567.59 392.382 576.188 393.531C584.785 394.681 592.663 388.66 593.812 380.062C594.273 376.602 594.819 373.128 595.188 369.656C596.544 356.879 596.597 343.997 597.5 331.188C598.015 323.885 598.941 316.634 600.094 309.406C605.495 275.521 615.183 242.512 622.906 209.125C624.599 201.808 626.145 194.455 627.781 187.125C630.369 175.532 633.111 164 635.406 152.344C636.555 146.513 637.401 140.654 638.281 134.781C638.533 134.187 638.78 133.594 639.031 133C639.035 132.99 639.025 132.982 639.031 132.969C639.055 132.913 639.101 132.868 639.125 132.812C639.237 132.611 639.352 132.454 639.469 132.25C639.812 131.649 640.247 130.881 640.562 130.281C641.538 128.426 642.415 126.496 642.875 124.438C643.098 123.441 643.281 122.426 643.312 121.406C643.353 120.078 643.296 118.715 643.062 117.406C642.833 116.118 642.487 114.844 641.938 113.656C641.326 112.335 640.555 111.058 639.625 109.938C638.679 108.798 637.553 107.792 636.344 106.938C635.227 106.149 633.957 105.572 632.688 105.062C631.714 104.671 630.69 104.43 629.656 104.25C628.696 104.083 627.724 104.012 626.75 104.031Z" fill="#01aaff" stroke="none"/>
</g>
<g opacity="1">
<path d="M597.656 259.344C595.616 259.373 593.548 259.815 591.562 260.688C572.108 269.328 551.538 275.043 530.688 279.188C521.665 280.981 512.571 282.476 503.5 284C495.398 285.346 489.935 293.023 491.281 301.125C492.627 309.227 500.273 314.69 508.375 313.344C528.396 310.055 548.563 307.084 568.219 301.969C580.555 298.758 592.539 294.522 604.219 289.438C612.159 285.946 615.773 276.691 612.281 268.75C609.663 262.794 603.776 259.257 597.656 259.344Z" fill="#01aaff" stroke="none"/>
</g>
<g opacity="1">
<path d="M738.844 102.125C737.105 102.094 735.367 102.221 733.656 102.531C729.494 103.286 725.825 105.266 722.188 107.312C720.757 108.117 719.344 108.904 717.938 109.75C705.763 117.073 695.026 126.702 685.531 137.219C679.062 144.384 673.245 152.07 667.75 160C661.829 168.545 656.288 177.326 651.062 186.312C629.555 223.298 614.147 263.655 605.688 305.594C603.881 314.551 602.144 323.601 602.312 332.781C602.392 337.119 603.047 341.403 603.875 345.656C604.522 348.979 605.403 352.262 606.969 355.281C610.092 361.305 615.551 366.042 622.031 368.125C624.935 369.059 627.899 369.386 630.938 369.188C636.637 368.816 642.226 366.645 647.219 364C653.037 360.918 658.341 357.151 663.094 352.594C667.37 348.493 671.141 343.888 675.344 339.719C681.463 333.648 688.256 328.226 695 322.875C706.401 313.829 717.913 304.838 729.688 296.281C741.893 287.412 754.42 279.022 767.156 270.938C774.477 266.283 776.623 256.602 771.969 249.281C767.315 241.961 757.602 239.783 750.281 244.438C737.002 252.894 723.942 261.663 711.219 270.938C703.307 276.705 695.6 282.705 687.875 288.719C680.062 294.801 672.222 300.854 664.688 307.281C660.801 310.597 656.929 313.982 653.312 317.594C649.248 321.654 645.594 326.126 641.469 330.125C639.097 332.424 636.47 334.275 633.625 335.906C632.642 329.88 633.669 323.632 634.719 317.688C636.161 309.52 637.9 301.391 639.906 293.344C650.501 250.857 669.008 210.233 694.188 174.406C702.379 162.751 711.635 151.773 722.719 142.75C727.785 138.626 733.252 135.141 739 132.062C739.452 132.148 739.905 132.237 740.344 132.375C740.955 132.567 741.516 132.867 742.094 133.125C742.12 133.768 742.13 134.418 742.125 135.062C742.104 138.013 741.98 140.924 742.062 143.875C742.296 152.084 749.134 158.578 757.344 158.344C765.553 158.11 772.015 151.241 771.781 143.031C771.568 135.715 772.546 128.474 770.062 121.375C768.388 116.587 765.022 112.422 760.906 109.5C758.771 107.984 756.395 106.826 754 105.781C749.29 103.728 744.061 102.217 738.844 102.125Z" fill="#01aaff" stroke="none"/>
</g>
<g opacity="1">
<path d="M831.375 165C829.724 165.239 828.132 165.785 826.625 166.5C825.32 167.12 824.136 168.038 823.031 168.969C822.234 169.64 821.603 170.48 820.938 171.281C820.137 172.246 819.495 173.304 818.844 174.375C817.091 177.258 815.734 180.37 814.656 183.562C812.612 189.615 811.772 195.966 809.906 202.062C804.787 218.785 799.272 235.423 793 251.75C782.904 278.028 771.482 303.807 761.094 329.969C753.51 349.066 746.484 368.358 740.344 387.969C737.764 396.251 742.405 405.045 750.688 407.625C758.97 410.205 767.764 405.595 770.344 397.312C773.263 387.89 776.338 378.54 779.656 369.25C787.718 346.68 796.805 324.461 805.719 302.219C812.149 286.173 818.579 270.132 824.375 253.844C825.794 249.855 827.219 245.87 828.531 241.844C831.085 234.011 833.64 226.177 836.094 218.312C837.299 214.451 838.582 210.613 839.562 206.688C839.962 205.089 840.34 203.488 840.688 201.875C843.128 201.528 845.527 200.635 847.625 199.031C854.007 194.15 855.305 185.092 850.688 178.594C850.69 178.607 850.666 178.579 850.656 178.562C850.609 178.408 850.469 178.187 850.406 178.062C850.253 177.759 850.09 177.46 849.938 177.156C849.752 176.787 849.564 176.399 849.375 176.031C848.678 174.678 847.956 173.329 847.062 172.094C845.983 170.6 844.724 169.174 843.219 168.094C842.371 167.485 841.486 166.86 840.531 166.438C839.202 165.85 837.842 165.321 836.406 165.094C834.754 164.832 833.031 164.76 831.375 165Z" fill="#01aaff" stroke="none"/>
</g>
<g opacity="1">
<path d="M942.094 123.625C936.059 124.026 930.134 125.379 924.188 126.406C915.131 127.97 906.056 129.405 897 130.969C862.595 136.91 829.245 147.164 796.25 158.406C777.211 164.894 758.114 171.271 739.375 178.594C730.856 181.923 722.386 185.389 713.969 188.969C709.245 190.978 704.573 193.111 699.812 195.031C693.888 197.422 687.842 199.528 682.125 202.406C680.523 203.213 678.896 204.027 677.406 205.031C677.047 205.273 676.675 205.5 676.375 205.812C675.184 207.054 674.108 208.367 672.969 209.656C672.376 210.328 671.993 211.458 671.688 212.281C670.718 214.891 670.474 217.768 671.031 220.5C671.292 221.779 671.729 222.946 672.281 224.125C672.368 224.309 672.468 224.507 672.562 224.688C672.567 224.696 672.558 224.711 672.562 224.719C672.565 224.723 672.591 224.714 672.594 224.719C672.804 225.07 672.98 225.449 673.219 225.781C673.679 226.421 674.158 227.073 674.688 227.656C675.893 228.986 677.377 230.028 678.969 230.844C679.982 231.363 681.253 231.966 682.406 232.094C683.528 232.218 684.657 232.376 685.781 232.469C686.492 232.527 687.198 232.421 687.906 232.344C690.826 232.025 693.643 231.048 696.531 230.562C700.578 229.868 703.959 227.607 706.156 224.5C706.161 224.493 706.151 224.476 706.156 224.469C707.748 223.858 709.356 223.261 710.938 222.625C714.12 221.345 717.253 219.974 720.406 218.625C737.926 211.128 755.685 204.078 773.75 198C803.615 187.952 833.509 177.723 864.062 169.938C877.124 166.609 890.308 163.855 903.594 161.594C912.666 160.05 921.744 158.629 930.812 157.062C935.644 156.228 940.543 154.992 945.469 154.906C947.63 154.868 949.775 155.101 951.906 155.438C960.478 156.771 968.51 150.915 969.844 142.344C971.178 133.772 965.29 125.74 956.719 124.406C951.868 123.659 946.998 123.299 942.094 123.625Z" fill="#01aaff" stroke="none"/>
</g>
</g>
</svg>
