<?xml version="1.0" encoding="UTF-8" standalone="no"?>
<!DOCTYPE svg PUBLIC "-//W3C//DTD SVG 1.1//EN" "http://www.w3.org/Graphics/SVG/1.1/DTD/svg11.dtd">
<!-- Created with Vectornator (http://vectornator.io/) -->
<svg height="100%" stroke-miterlimit="10" style="fill-rule:nonzero;clip-rule:evenodd;stroke-linecap:round;stroke-linejoin:round;" version="1.1" viewBox="0 0 1000 500" width="100%" xml:space="preserve" xmlns="http://www.w3.org/2000/svg" xmlns:vectornator="http://vectornator.io" xmlns:xlink="http://www.w3.org/1999/xlink">
<defs/>
<g id="Ebene-1" vectornator:layerName="Ebene 1">
<g opacity="1">
<path d="M181.781 160.5C180.465 160.388 179.156 160.597 177.844 160.75C177.268 160.817 176.718 161.013 176.156 161.156C175.257 161.543 174.31 161.812 173.469 162.312C172.362 162.971 171.32 163.785 170.344 164.625C169.778 165.112 169.314 165.703 168.844 166.281C166.318 169.386 165.869 173.404 164.938 177.156C164.634 178.377 164.528 179.578 164.531 180.781C161.579 195.925 156.991 210.692 152.344 225.406C149.147 235.527 146.071 245.657 142.688 255.719C136.588 273.853 130.105 291.867 124.781 310.25C121.145 322.807 117.344 335.395 115.375 348.344C114.087 356.922 120.015 364.931 128.594 366.219C137.172 367.507 145.149 361.578 146.438 353C147.697 344.506 150.018 336.301 152.281 328.031C155.72 315.467 159.55 303.017 163.562 290.625C167.042 279.88 170.589 269.162 173.938 258.375C175.892 252.08 177.703 245.729 179.562 239.406C181.533 232.708 183.6 226.035 185.594 219.344C188.965 208.03 192.097 196.622 194.219 185C194.572 183.065 194.871 181.102 195.156 179.156C195.706 175.404 195.803 172.313 194 168.781C193.727 168.246 193.463 167.715 193.125 167.219C192.676 166.56 192.208 165.888 191.656 165.312C190.934 164.559 190.176 163.836 189.312 163.25C188.249 162.528 187.114 161.876 185.906 161.438C184.585 160.958 183.182 160.619 181.781 160.5Z" fill="#01aaff" stroke="none"/>
</g>
<g opacity="1">
<path d="M229.688 132.75C224.95 132.616 220.232 132.555 215.5 132.875C205.165 133.573 194.843 135.433 184.719 137.562C163.071 142.116 142.052 149.347 122.906 160.531C116.363 164.353 109.86 168.203 103.594 172.469C98.1679 176.162 93.1977 180.192 91 186.688C90.0811 189.404 89.8522 192.251 90.0625 195.094C90.1561 196.359 90.5766 198.091 90.5938 199.156C90.9952 207.359 97.9846 213.683 106.188 213.281C114.39 212.88 120.714 205.89 120.312 197.688C120.303 197.509 120.263 197.334 120.25 197.156C120.517 196.976 120.765 196.776 121.031 196.594C125.528 193.513 130.237 190.755 134.938 188C141.455 184.181 148.036 180.605 155 177.656C166.514 172.78 178.613 169.319 190.844 166.781C197.627 165.374 204.462 164.186 211.344 163.375C214.699 162.98 218.058 162.664 221.438 162.594C225.344 162.513 229.255 162.727 233.156 162.906C236.849 163.076 240.475 163.609 244.062 164.5C244.542 164.619 245.021 164.753 245.5 164.875C245.52 164.881 245.519 164.902 245.531 164.906C245.687 164.959 245.78 164.974 245.938 165.031C246.238 165.14 246.547 165.256 246.844 165.375C247.307 165.561 247.737 165.82 248.188 166.031C248.268 166.162 248.366 166.285 248.438 166.406C249.307 167.879 249.928 169.423 250.562 171C250.298 176.349 248.533 181.522 246.469 186.438C242.997 194.706 238.326 202.423 233.469 209.938C229.468 216.126 225.381 222.253 221.188 228.312C195.041 266.089 163.291 299.525 133.688 334.531C122.409 347.867 111.203 361.268 98.9375 373.719C96.6661 376.025 94.3203 378.276 91.9688 380.5C87.2856 384.929 82.6394 388.936 76.9375 392C69.2992 396.111 66.4199 405.643 70.5312 413.281C74.6426 420.92 84.1742 423.799 91.8125 419.688C95.0418 417.946 98.1546 416.033 101.125 413.875C108.761 408.327 115.647 401.469 122.25 394.75C135.374 381.396 147.283 366.928 159.344 352.625C180.463 327.58 202.557 303.315 222.906 277.625C230.485 268.057 237.826 258.313 244.781 248.281C248.981 242.225 252.992 236.028 257 229.844C265.931 216.062 274.503 201.708 278.781 185.719C280.551 179.107 281.629 171.947 280.281 165.156C279.383 160.628 277.35 156.223 275.094 152.219C273.582 149.536 271.881 146.828 269.781 144.562C266.939 141.497 263.049 139.505 259.25 137.906C249.91 133.976 239.724 133.035 229.688 132.75Z" fill="#01aaff" stroke="none"/>
</g>
<g opacity="1">
<path d="M355.219 119.781C354.181 119.745 353.151 119.809 352.125 119.969C350.114 120.282 348.147 121.061 346.375 122.062C345.6 122.501 344.88 123.033 344.188 123.594C342.719 124.783 341.505 126.195 340.406 127.719C340.146 128.079 339.791 128.609 339.531 129C338.9 129.708 338.265 130.429 337.656 131.156C336.942 132.009 336.253 132.879 335.562 133.75C333.411 136.464 331.278 139.207 329.188 141.969C322.746 150.479 316.693 159.264 310.219 167.75C306.006 173.271 301.684 178.716 297.406 184.188C289.945 193.731 282.497 203.287 275.094 212.875C254.992 238.908 235.272 265.235 217 292.594C212.044 300.014 207.164 307.458 202.25 314.906C198.937 319.928 195.457 324.883 192.656 330.219C190.301 334.707 186.892 338.703 186.094 343.875C185.772 345.959 185.758 348.132 186.281 350.188C186.513 351.096 186.792 351.993 187.188 352.844C187.666 353.874 188.227 354.87 188.906 355.781C189.599 356.71 190.401 357.558 191.281 358.312C192.132 359.042 193.076 359.687 194.062 360.219C194.973 360.709 195.951 361.065 196.938 361.375C201.577 362.833 206.845 361.719 210.875 359.156C214.171 357.06 216.546 353.942 218.188 350.438C218.85 349.022 219.338 347.548 219.812 346.062C219.906 345.769 219.999 345.481 220.094 345.188C220.129 345.08 220.18 344.952 220.219 344.844C220.224 344.83 220.226 344.768 220.219 344.781C221.112 343.061 221.662 341.26 221.844 339.438C222.717 338.069 223.538 336.663 224.438 335.312C226.311 332.498 228.167 329.696 230.031 326.875C240.429 311.138 250.879 295.441 261.938 280.156C277.563 258.559 293.909 237.528 310.406 216.594C312.319 214.167 314.263 211.762 316.188 209.344C301.802 260.358 290.258 312.138 282.781 364.625C281.564 373.214 287.536 381.157 296.125 382.375C304.714 383.592 312.689 377.62 313.906 369.031C319.578 328.823 327.674 289.043 337.656 249.688C342.603 230.183 347.756 210.712 353.75 191.5C355.068 187.275 356.478 183.085 357.844 178.875C360.541 170.559 363.457 162.303 366.375 154.062C367.381 151.221 368.434 148.361 369.188 145.438C369.181 145.445 369.19 145.407 369.188 145.406C369.207 145.33 369.262 145.264 369.281 145.188C369.358 145.006 369.459 144.84 369.531 144.656C369.649 144.357 369.764 144.052 369.875 143.75C370.501 142.047 370.98 140.28 371.156 138.469C371.675 133.151 369.847 127.917 365.938 124.219C365.327 123.641 364.667 123.094 363.969 122.625C363.196 122.106 362.382 121.627 361.531 121.25C360.534 120.809 359.499 120.437 358.438 120.188C357.383 119.939 356.302 119.819 355.219 119.781Z" fill="#01aaff" stroke="none"/>
</g>
<g opacity="1">
<path d="M347.688 249.75C346.646 249.68 345.574 249.698 344.5 249.844C340.984 250.334 337.49 250.889 333.969 251.344C316.605 253.588 299.154 255.091 281.969 258.562C269.118 261.158 256.794 265.725 244 268.531C235.975 270.277 230.879 278.194 232.625 286.219C234.371 294.244 242.288 299.34 250.312 297.594C262.056 295.06 273.419 290.991 285.219 288.719C297.14 286.423 309.308 285.414 321.375 284.219C330.515 283.313 339.646 282.205 348.75 281C357.346 279.832 363.355 271.908 362.188 263.312C361.166 255.791 354.977 250.238 347.688 249.75Z" fill="#01aaff" stroke="none"/>
</g>
<g opacity="1">
<path d="M445.844 146.781C444.237 146.927 442.65 147.327 441.156 147.969C440.598 148.208 439.991 148.416 439.531 148.812C438.193 149.967 436.82 151.072 435.531 152.281C434.847 152.924 434.414 153.785 433.938 154.594C433.019 156.151 432.244 157.791 431.5 159.438C429.103 164.738 427.472 170.323 425.781 175.875C424.371 180.507 422.734 185.068 421.281 189.688C418.606 198.193 416.224 206.806 413.875 215.406C405.381 246.509 396.244 277.419 387.125 308.344C385.22 314.804 383.373 321.271 381.531 327.75C377.786 340.922 373.783 354.059 367.25 366.156C363.139 373.795 365.987 383.326 373.625 387.438C381.263 391.549 390.795 388.67 394.906 381.031C398.277 374.748 401.17 368.277 403.656 361.594C408.664 348.134 412.198 334.143 416.125 320.344C423.793 293.396 431.367 266.413 438.594 239.344C442.812 223.545 446.7 207.627 451.844 192.094C453.343 187.567 454.654 183.003 456.125 178.469C458.534 176.255 460.285 173.299 460.812 169.812C461.15 167.441 461.926 165.192 462.062 162.781C462.155 161.14 461.827 159.503 461.594 157.875C461.377 156.364 460.29 154.403 459.438 153.188C458.255 151.501 456.822 150.191 455.125 149.031C454.801 148.81 454.466 148.633 454.125 148.438C454.128 148.432 454.101 148.443 454.094 148.438C454.088 148.434 454.065 148.401 454.062 148.406C453.71 148.237 453.366 148.044 453 147.906C452.236 147.618 451.449 147.319 450.656 147.125C449.07 146.737 447.45 146.635 445.844 146.781Z" fill="#01aaff" stroke="none"/>
</g>
<g opacity="1">
<path d="M534.562 128.031C520.097 127.761 505.684 128.782 491.344 130.656C482.391 131.827 473.501 133.48 464.594 134.938C455.307 136.457 445.997 137.763 436.781 139.688C428.539 141.408 420.388 143.555 412.25 145.719C408.824 142.318 403.829 140.629 398.75 141.688C396.143 142.23 393.505 142.57 390.906 143.156C388.484 143.703 386.192 144.503 383.844 145.281C378.115 147.181 372.76 149.555 369 154.5C368.458 155.213 367.609 156.475 367.219 157.281C366.795 158.156 366.343 159.038 366.062 159.969C365.722 161.099 365.448 162.262 365.344 163.438C365.239 164.619 365.282 165.824 365.438 167C365.587 168.125 365.899 169.244 366.281 170.312C366.634 171.299 367.096 172.221 367.625 173.125C371.141 179.13 378.952 182.054 385.625 182.344C389.13 182.496 392.38 181.678 395.719 180.75C398.377 180.011 401.1 179.493 403.781 178.844C414.681 176.205 425.512 173.335 436.469 170.938C448.383 168.331 460.493 166.913 472.531 165.031C481.745 163.591 490.949 162.134 500.219 161.094C511.419 159.837 522.636 159.183 533.906 159.438C542.579 159.616 549.759 152.735 549.938 144.062C550.116 135.39 543.235 128.21 534.562 128.031Z" fill="#01aaff" stroke="none"/>
</g>
<g opacity="1">
<path d="M518.625 159.281C516.747 159.311 514.886 159.674 513.094 160.375C512.915 160.445 512.724 160.489 512.562 160.594C511.37 161.364 510.13 162.09 508.969 162.906C507.7 163.798 506.584 165.432 505.75 166.75C504.329 168.995 503.021 171.305 501.844 173.688C498.723 180.001 496.447 186.68 494.031 193.281C492.615 197.151 491.093 200.974 489.594 204.812C488.024 208.831 486.465 212.879 485 216.938C481.205 227.452 477.939 238.147 474.5 248.781C472.649 254.505 470.727 260.225 468.938 265.969C466.641 273.338 464.496 280.731 462.281 288.125C460.541 293.936 458.691 299.741 457.094 305.594C455.833 310.214 454.762 314.887 453.594 319.531C451.412 328.207 449.212 336.887 447.031 345.562C444.931 353.979 450.052 362.493 458.469 364.594C466.885 366.694 475.399 361.604 477.5 353.188C479.755 344.091 482.028 334.972 484.281 325.875C485.279 321.846 486.204 317.789 487.281 313.781C488.801 308.128 490.539 302.533 492.156 296.906C494.26 289.586 496.283 282.243 498.438 274.938C501.436 264.77 504.671 254.665 507.781 244.531C509.584 238.657 511.379 232.781 513.375 226.969C515.795 219.922 518.604 213.018 521.188 206.031C522.419 202.701 523.586 199.338 524.812 196C526.862 194.266 528.491 191.993 529.375 189.25C531.418 182.903 535.304 176.344 532.969 169.531C532.157 167.164 530.91 165.253 529.188 163.438C528.816 163.046 528.347 162.726 527.938 162.375C527.946 162.364 527.906 162.354 527.906 162.344C527.905 162.271 527.739 162.216 527.656 162.156C527.474 162.025 527.312 161.906 527.125 161.781C526.213 161.171 525.212 160.646 524.188 160.25C522.382 159.553 520.503 159.252 518.625 159.281Z" fill="#01aaff" stroke="none"/>
</g>
<g opacity="1">
<path d="M658.656 124.375C648.993 124.663 639.407 125.592 629.875 127.219C614.574 129.83 599.608 134.017 584.812 138.656C572.591 142.488 560.451 146.604 548.312 150.688C540.83 153.205 533.334 155.663 525.812 158.062C524.476 158.489 523.113 158.889 521.781 159.375C516.539 155.863 509.444 155.916 504.25 160.062C498.042 165.019 496.903 173.926 501.469 180.312C501.46 180.297 501.49 180.329 501.5 180.344C501.641 180.548 501.765 180.764 501.906 180.969C503.088 183.063 504.5 185.084 506.375 186.594C507.208 187.264 508.056 187.906 509 188.406C510.161 189.022 511.396 189.564 512.656 189.938C513.74 190.259 514.878 190.364 516 190.5C517.297 190.657 518.729 190.547 520.031 190.438C524.575 190.055 528.796 188.532 533.062 187.031C537.96 185.308 542.994 183.903 547.938 182.312C564.352 177.03 580.766 171.754 597.344 167C613.139 162.471 629.222 158.378 645.594 156.625C650.227 156.129 654.875 155.899 659.531 155.781C668.202 155.543 675.02 148.296 674.781 139.625C674.543 130.954 667.328 124.136 658.656 124.375Z" fill="#01aaff" stroke="none"/>
</g>
<g opacity="1">
<path d="M596.656 201.656C595.613 201.622 594.569 201.693 593.5 201.875C579.668 204.261 565.998 207.433 552.5 211.281C531.334 217.316 510.636 224.918 489.875 232.188C480.306 235.538 470.583 238.418 461.062 241.906C460.016 242.078 458.963 242.34 457.938 242.75C456.212 243.437 454.495 244.097 452.781 244.812C451.548 245.327 450.337 245.917 449.094 246.406C446.72 247.341 444.257 248.171 442.031 249.438C441.209 249.905 440.122 250.583 439.438 251.188C438.66 251.874 437.784 252.505 437.219 253.375C436.021 255.218 434.471 257.066 434.219 259.25C433.813 262.763 434.015 266.503 435.344 269.781C436.385 272.349 438.821 274.156 440.969 275.906C442.082 276.814 443.582 277.118 444.938 277.594C445.647 277.843 446.382 277.947 447.125 278.062C448.795 278.322 450.548 278.288 452.219 278.062C455.015 277.684 457.641 276.645 460.062 275.219C460.767 274.804 461.512 274.257 462.188 273.781C462.46 273.589 462.729 273.382 463 273.188C465.65 272.172 468.264 271.085 470.938 270.125C475.825 268.369 480.792 266.791 485.75 265.25C515.013 256.157 543.779 245.387 573.562 238.031C581.898 235.972 590.284 234.268 598.75 232.844C607.301 231.387 613.051 223.27 611.594 214.719C610.319 207.236 603.958 201.898 596.656 201.656Z" fill="#01aaff" stroke="none"/>
</g>
<g opacity="1">
<path d="M612.531 288.281C611.489 288.328 610.427 288.485 609.375 288.75C592.273 293.085 575.29 297.861 558.469 303.188C535.931 310.324 513.687 318.287 491.5 326.438C483.259 329.465 474.96 332.357 466.75 335.469C461.038 337.634 455.412 339.989 449.844 342.5C444.855 344.75 439.91 347.132 434.875 349.281C434.608 349.395 434.33 349.482 434.062 349.594C432.484 349.781 430.889 350.182 429.375 350.906C425.4 352.806 420.913 354.197 418.156 357.875C417.686 358.503 417.193 359.111 416.844 359.812C416.268 360.969 415.774 362.168 415.406 363.406C415.143 364.291 415.111 365.244 414.969 366.156C414.963 366.156 414.963 366.187 414.969 366.188C414.961 366.713 414.879 367.259 414.938 367.781C415.069 368.966 415.189 370.17 415.531 371.312C415.891 372.513 416.398 373.668 417.031 374.75C417.621 375.757 418.356 376.682 419.156 377.531C419.83 378.246 420.637 378.837 421.438 379.406C422.563 380.207 423.855 380.802 425.156 381.25C429.258 382.664 432.562 381.964 436.469 380.594C438.445 379.901 440.399 379.151 442.344 378.375C452.793 374.206 462.845 369.056 473.344 365C480.52 362.228 487.8 359.781 495.062 357.25C504.211 354.062 513.329 350.842 522.5 347.719C553.669 337.103 585.107 327.203 617.062 319.219C625.475 317.102 630.555 308.537 628.438 300.125C626.585 292.764 619.829 287.955 612.531 288.281Z" fill="#01aaff" stroke="none"/>
</g>
<g opacity="1">
<path d="M855.344 65.9062C851.026 66.1014 846.73 66.5919 842.5 67.3438C836.594 68.3933 830.852 70.2784 825.156 72.125C819.192 74.0587 813.361 76.3575 807.594 78.8125C799.469 82.2711 791.488 86.0469 783.656 90.125C740.092 112.809 701.779 144.134 666.531 178.062C662.341 182.096 658.201 186.195 654.094 190.312C646.732 197.694 639.634 205.309 633.656 213.875C631.353 217.175 629.418 220.829 627.938 224.562C626.378 228.495 625.301 232.739 625.656 237C625.849 239.306 626.392 241.55 627.281 243.688C632.084 255.224 645.883 260.58 657.406 262.156C659.823 262.487 662.281 262.675 664.719 262.75C667.637 262.84 670.554 262.783 673.469 262.625C679.416 262.302 685.324 261.604 691.25 261.031C700.144 260.171 709.024 259.25 717.906 258.281C756.98 254.019 796.267 248.928 835.656 250.844C845.507 251.323 855.296 252.302 865.062 253.656C872.377 254.671 879.731 255.781 886.844 257.812C890.513 258.86 894.189 260.133 897.531 262C898.54 262.564 899.594 263.228 900.438 264.062C900.009 265.179 899.326 266.191 898.594 267.125C897.83 268.1 897.022 269.053 896.188 269.969C893.094 273.362 889.754 276.452 886.219 279.375C877.759 286.37 868.569 292.38 859.25 298.156C853.484 301.73 847.687 305.272 841.844 308.719C789.737 339.45 734.675 365.483 676.531 382.562C660.693 387.215 644.424 392.023 627.781 392.188C623.606 392.229 619.32 392.059 615.219 391.219C613.329 390.832 611.358 390.261 609.906 388.969C608.329 387.565 608.197 384.345 608.125 382.469C607.933 377.467 608.755 372.465 609.656 367.562C610.802 361.332 612.326 355.206 614.406 349.219C618.904 336.272 625.52 324.228 632.844 312.688C637.49 305.362 635.294 295.646 627.969 291C620.643 286.354 610.958 288.518 606.312 295.844C597.697 309.438 590.034 323.695 584.75 338.938C582.151 346.433 580.21 354.106 578.781 361.906C577.862 366.928 577.116 371.991 576.844 377.094C576.143 390.24 578.84 403.285 589.031 412.375C591.024 414.153 593.208 415.714 595.531 417.031C599.051 419.027 602.859 420.468 606.781 421.438C614.224 423.277 622.107 423.691 629.75 423.5C644.398 423.135 658.793 420.009 672.875 416.156C683.81 413.164 694.668 409.855 705.438 406.312C758.408 388.887 808.866 364.354 856.781 335.969C863.103 332.224 869.387 328.383 875.625 324.5C885.801 318.165 895.819 311.552 905.094 303.938C910.061 299.859 914.743 295.516 919.062 290.75C921.807 287.722 924.401 284.484 926.5 280.969C928.665 277.343 930.256 273.312 931.031 269.156C931.638 265.899 931.715 262.56 931.219 259.281C929.667 249.023 922.763 241.204 914.125 236C909.194 233.029 903.793 230.879 898.312 229.156C890.996 226.856 883.451 225.328 875.875 224.188C868.547 223.085 861.191 222.137 853.812 221.438C842.74 220.387 831.621 219.906 820.5 219.875C787.398 219.783 754.466 223.647 721.625 227.375C710.527 228.635 699.428 229.833 688.312 230.938C684.166 231.349 680.027 231.834 675.875 232.188C670.009 232.686 663.774 233.174 658.031 231.562C658.826 230.313 659.677 229.112 660.562 227.938C662.712 225.088 665.036 222.358 667.438 219.719C671.324 215.446 675.401 211.38 679.5 207.312C684.351 202.5 689.252 197.724 694.219 193.031C731.603 157.706 773.214 125.453 820.969 105.469C826.525 103.144 832.162 101.118 837.906 99.3125C840.89 98.3745 843.863 97.3831 846.938 96.7812C852.325 95.7266 857.929 95.4253 863.406 95.6562C866.758 95.7975 870.129 96.1582 873.375 97.0312C874.914 97.4451 876.459 98.0062 877.781 98.9062C877.785 98.9091 877.777 98.9347 877.781 98.9375C877.762 99.1637 877.729 99.4017 877.688 99.625C877.551 100.355 877.31 101.073 877.094 101.781C876.544 103.585 875.921 105.344 875.219 107.094C874.068 109.96 872.788 112.863 871.062 115.438C869.345 118 867.278 120.337 865.219 122.625C863.032 125.053 860.829 127.474 858.719 129.969C853.414 136.238 854.199 145.601 860.469 150.906C866.738 156.211 876.101 155.426 881.406 149.156C885.096 144.797 889.124 140.743 892.656 136.25C897.304 130.338 900.757 123.698 903.438 116.688C905.178 112.136 906.752 107.393 907.312 102.531C908.198 94.8511 906.349 87.0677 901.594 80.9062C900.171 79.0633 898.529 77.3697 896.719 75.9062C893.712 73.4752 890.306 71.5871 886.719 70.1562C880.849 67.8145 874.559 66.6707 868.281 66.1562C864.001 65.8055 859.662 65.7111 855.344 65.9062Z" fill="#01aaff" stroke="none"/>
</g>
</g>
</svg>
