<?xml version="1.0" encoding="UTF-8" standalone="no"?>
<!DOCTYPE svg PUBLIC "-//W3C//DTD SVG 1.1//EN" "http://www.w3.org/Graphics/SVG/1.1/DTD/svg11.dtd">
<!-- Created with Vectornator (http://vectornator.io/) -->
<svg height="100%" stroke-miterlimit="10" style="fill-rule:nonzero;clip-rule:evenodd;stroke-linecap:round;stroke-linejoin:round;" version="1.1" viewBox="0 0 595.35 419.58" width="100%" xml:space="preserve" xmlns="http://www.w3.org/2000/svg" xmlns:vectornator="http://vectornator.io" xmlns:xlink="http://www.w3.org/1999/xlink">
<defs/>
<g id="Ebene-1" vectornator:layerName="Ebene 1">
<path d="" fill="none" opacity="1" stroke="#000000" stroke-linecap="butt" stroke-linejoin="round" stroke-width="10"/>
<g opacity="1">
<path d="M548 305C548 305 548.412 306.15 548.375 306.031C548.413 306.151 548.425 306.288 548.469 306.406C548.512 306.523 548.472 306.398 548.75 307.062C548.883 307.276 549.162 307.352 549.375 307.219C549.588 307.086 549.633 306.776 549.5 306.562C548.742 305.779 548.662 305.698 548.75 305.781C548.664 305.7 548.59 305.609 548.5 305.531C548.408 305.452 548 305 548 305Z" fill="#000000" stroke="none"/>
</g>
<g opacity="1">
<path d="M100.906 137.344C100.028 137.39 99.1635 137.624 98.3125 137.844C97.9392 137.94 97.6071 138.136 97.25 138.281C96.6924 138.618 96.1028 138.875 95.5938 139.281C94.9241 139.816 94.317 140.451 93.75 141.094C91.6398 143.486 91.618 146.569 91.3125 149.531C91.3083 149.572 91.3169 149.615 91.3125 149.656C90.8884 153.641 89.9363 157.573 89.1875 161.5C88.2848 166.235 87.4257 170.983 86.375 175.688C85.2356 180.789 83.8903 185.86 82.5312 190.906C78.6257 205.409 74.2108 219.769 70.3438 234.281C68.6365 240.689 67.5798 247.233 65.9375 253.656C64.5186 259.252 67.9038 264.956 73.5 266.375C79.0962 267.794 84.7686 264.409 86.1875 258.812C87.7864 252.453 88.8343 245.966 90.5 239.625C96.5476 216.601 103.492 193.757 107.781 170.312C108.354 167.184 108.89 164.052 109.531 160.938C110.235 157.521 111.033 154.143 111.312 150.656C111.363 150.023 111.259 149.458 111.281 148.844C111.283 148.822 111.277 148.817 111.281 148.781C111.29 148.707 111.319 148.612 111.312 148.656C111.309 148.68 111.285 148.695 111.281 148.719C111.373 145.826 111.143 143.087 109 140.719C108.644 140.325 108.26 139.954 107.844 139.625C107.299 139.194 106.748 138.745 106.125 138.438C105.358 138.059 104.555 137.742 103.719 137.562C102.804 137.366 101.841 137.295 100.906 137.344Z" fill="#01aaff" stroke="none"/>
</g>
<g opacity="1">
<path d="M114.281 127.875C112.075 127.95 109.878 128.124 107.719 128.375C100.482 129.215 93.3594 130.931 86.4688 133.281C83.5237 134.286 80.5921 135.378 77.7812 136.719C75.2353 137.933 72.8177 139.386 70.4062 140.844C67.763 142.442 65.1653 144.101 62.5938 145.812C61.2221 146.725 59.8692 147.678 58.5 148.594C55.7468 150.435 52.9206 152.422 51.4688 155.531C51.0853 156.352 50.6267 157.17 50.4688 158.062C50.2072 159.54 49.9999 161.078 50.2188 162.562C50.4315 164.006 51.0884 165.34 51.7188 166.656C52.0296 167.305 52.5533 167.842 53 168.406C53.2432 168.713 53.5776 168.989 53.875 169.281C53.838 169.236 53.8179 169.202 53.7812 169.156C56.9309 173.624 63.0952 174.681 67.5625 171.531C70.2115 169.664 71.5058 166.727 71.5938 163.719C74.5898 161.707 77.565 159.678 80.6562 157.812C82.5065 156.696 84.358 155.522 86.3125 154.594C88.7165 153.452 91.2275 152.587 93.75 151.75C99.9881 149.679 106.589 148.273 113.156 147.875C114.514 147.793 115.859 147.756 117.219 147.781C118.125 147.798 119.036 147.873 119.938 147.969C120.762 148.056 121.594 148.176 122.406 148.344C125.119 148.904 128.953 150.305 129.156 153.594C129.273 155.486 128.711 157.505 128.156 159.281C127.337 161.907 126.222 164.4 125.031 166.875C121.003 175.247 115.91 183.105 110.656 190.75C98.8113 207.985 85.1723 223.872 72.2812 240.312C65.3469 249.156 58.8719 258.346 51.9375 267.188C49.1946 270.685 46.315 274.047 43.4062 277.406C39.6308 281.774 40.101 288.381 44.4688 292.156C48.8365 295.932 55.4433 295.462 59.2188 291.094C60.765 289.302 62.3617 287.539 63.875 285.719C69.8913 278.483 75.35 270.792 80.9688 263.25C84.9846 257.86 89.1275 252.572 93.3125 247.312C105.378 232.148 117.689 217.126 128.469 201C132.914 194.35 137.203 187.565 140.906 180.469C146.323 170.089 152.269 156.928 147.594 145.219C146.929 143.554 146.119 141.961 145.125 140.469C143.844 138.546 142.288 136.812 140.531 135.312C138.477 133.56 136.156 132.118 133.688 131.031C127.621 128.36 120.901 127.649 114.281 127.875Z" fill="#01aaff" stroke="none"/>
</g>
<g opacity="1">
<path d="M193.562 114.594C190.524 114.617 187.665 115.903 185.469 118.219C184.331 119.418 183.542 120.885 182.938 122.406C182.75 122.879 182.597 123.39 182.438 123.875C182.415 123.945 182.398 124.024 182.375 124.094C181.846 124.89 181.348 125.729 180.844 126.531C180.003 127.869 179.121 129.163 178.188 130.438C175.48 134.136 172.747 137.815 169.938 141.438C161.662 152.109 153.559 162.9 145.562 173.781C138.223 183.769 131.043 193.883 123.5 203.719C119.9 208.413 116.106 212.958 112.719 217.812C110.435 221.085 108.47 224.5 106.562 228C104.283 232.183 101.602 236.176 100.875 241C100.79 241.564 100.703 242.117 100.719 242.688C100.745 243.632 100.643 244.626 101 245.5C101.707 247.232 102.379 249.212 103.844 250.375C105.745 251.885 108.199 252.726 110.594 253.125C112.046 253.367 113.514 252.699 114.906 252.219C115.718 251.939 116.391 251.369 117.094 250.875C119.061 249.494 120.123 247.279 121.781 245.625C124.079 243.231 124.753 240 124.188 236.969C124.626 236.178 125.054 235.38 125.5 234.594C128.918 228.576 133.396 223.237 137.656 217.812C142.018 212.259 146.178 206.553 150.375 200.875C157.145 191.716 163.97 182.583 170.844 173.5C168.642 183.213 166.531 192.957 164.406 202.688C162.204 212.771 159.998 222.883 158.656 233.125C157.829 239.439 157.377 245.758 157.312 252.125C157.259 257.898 161.883 262.634 167.656 262.688C173.429 262.741 178.165 258.117 178.219 252.344C178.364 235.138 182.365 218.394 185.938 201.656C188.682 188.798 191.233 175.865 194.5 163.125C195.698 158.453 197.143 153.849 198.594 149.25C199.299 147.015 200.004 144.773 200.688 142.531C201.462 139.992 202.192 137.454 202.938 134.906C203.213 133.965 203.414 133.026 203.594 132.062C203.567 132.14 203.637 131.905 203.625 131.969C205.065 127.74 205.558 123.445 202.844 119.5C202.475 118.964 202.049 118.434 201.594 117.969C201.124 117.489 200.605 117.052 200.062 116.656C199.12 115.97 197.743 115.298 196.625 115C195.591 114.724 194.575 114.586 193.562 114.594Z" fill="#01aaff" stroke="none"/>
</g>
<g opacity="1">
<path d="M187.938 186.219C186.596 186.006 185.214 186.06 183.812 186.406C182.371 186.77 180.917 187.166 179.469 187.5C172.799 189.037 166.005 189.925 159.281 191.188C150.875 192.765 142.592 194.847 134.031 195.406C128.576 195.751 124.406 200.451 124.75 205.906C125.094 211.361 129.826 215.501 135.281 215.156C143.77 214.639 152.055 212.99 160.438 211.656C166.641 210.67 172.913 209.976 179.094 208.844C182.368 208.244 185.579 207.503 188.812 206.719C194.417 205.332 197.855 199.667 196.469 194.062C195.429 189.859 191.961 186.858 187.938 186.219Z" fill="#01aaff" stroke="none"/>
</g>
<g opacity="1">
<path d="M237.438 131.062C232.016 130.365 227.041 134.204 226.344 139.625C224.917 150.636 222.881 161.517 220.281 172.312C216.456 188.197 211.632 203.833 207.125 219.531C206.01 223.416 204.881 227.304 203.875 231.219C202.119 238.055 200.558 244.927 198.75 251.75C197.283 257.334 200.635 263.064 206.219 264.531C211.802 265.999 217.501 262.646 218.969 257.062C220.762 250.182 222.321 243.237 224.062 236.344C225.012 232.586 226.071 228.864 227.094 225.125C232.167 206.586 237.438 188.099 241.406 169.281C243.3 160.299 244.807 151.261 245.969 142.156C246.666 136.735 242.859 131.76 237.438 131.062Z" fill="#01aaff" stroke="none"/>
</g>
<g opacity="1">
<path d="M282.562 113.406C278.254 113.941 274.029 114.778 269.844 115.938C264.656 117.375 259.602 119.206 254.438 120.719C248.186 122.551 241.812 123.951 235.438 125.281C231.049 126.197 226.676 127.146 222.281 128.031C218.245 128.844 214.181 129.55 210.188 130.562C208.042 131.107 205.95 131.795 203.844 132.469C199.771 133.772 195.666 134.745 192 137.062C191.57 137.335 191.15 137.592 190.75 137.906C190.22 138.323 189.658 138.739 189.219 139.25C188.554 140.023 187.853 140.806 187.469 141.75C186.895 143.161 186.376 144.664 186.406 146.188C186.44 147.88 186.936 149.562 187.656 151.094C188.196 152.243 189.154 153.177 190.094 154.031C190.794 154.668 191.658 155.099 192.5 155.531C192.994 155.785 193.53 155.936 194.062 156.094C195.222 156.438 196.458 156.539 197.656 156.656C197.925 156.683 198.215 156.841 198.469 156.75C198.561 156.717 198.252 156.706 198.156 156.688C202.664 157.783 207.067 155.495 209.125 151.562C209.697 151.396 210.276 151.244 210.844 151.062C216.883 149.135 223.193 148.293 229.406 147.125C239.685 145.193 250.003 143.446 260.094 140.656C268.454 138.345 276.42 135.189 285.094 134.156C290.825 133.46 294.915 128.262 294.219 122.531C293.522 116.8 288.294 112.71 282.562 113.406Z" fill="#01aaff" stroke="none"/>
</g>
<g opacity="1">
<path d="M267.625 144.844C263.784 144.49 259.936 146.418 258 150.031C255.396 154.896 254.245 160.184 252.812 165.469C251.976 168.557 250.898 171.574 249.844 174.594C246.507 184.147 242.757 193.561 239.719 203.219C235.986 215.082 232.962 227.177 229.406 239.094C227.77 244.63 230.932 250.426 236.469 252.062C242.005 253.699 247.832 250.536 249.469 245C252.951 233.109 255.906 221.08 259.375 209.188C262.139 199.713 265.525 190.439 268.688 181.094C269.864 177.617 271.069 174.114 272 170.562C272.983 166.811 273.584 162.828 275.438 159.375C278.019 154.557 276.224 148.582 271.406 146C270.202 145.355 268.905 144.962 267.625 144.844Z" fill="#01aaff" stroke="none"/>
</g>
<g opacity="1">
<path d="M308.312 210.219C306.966 210.395 305.62 210.832 304.375 211.562C298.878 214.832 292.503 216.199 286.594 218.531C276.778 222.405 267.114 226.637 257.281 230.469C250.66 233.049 243.915 235.422 237.5 238.5C232.598 240.852 227.993 243.594 223.656 246.875C219.295 250.17 218.424 256.389 221.719 260.75C225.014 265.111 231.233 265.982 235.594 262.688C243.732 256.548 253.349 253.311 262.844 249.906C270.407 247.194 277.89 244.263 285.375 241.344C288.778 240.017 292.165 238.604 295.594 237.344C299.494 235.911 303.508 234.808 307.375 233.281C310.012 232.24 312.519 231.017 314.969 229.594C319.949 226.673 321.608 220.261 318.688 215.281C316.497 211.546 312.352 209.689 308.312 210.219Z" fill="#01aaff" stroke="none"/>
</g>
<g opacity="1">
<path d="M340.844 124.75C339.504 124.526 338.122 124.571 336.719 124.906C324.641 127.829 312.747 131.356 301 135.406C294.462 137.66 288.023 140.203 281.469 142.406C278.23 143.495 274.948 144.417 271.75 145.625C269.041 146.648 266.427 147.917 263.812 149.156C260.792 150.587 257.648 152.158 255.188 154.469C254.736 154.893 254.271 155.312 253.906 155.812C253.316 156.624 252.638 157.416 252.344 158.375C251.873 159.908 251.416 161.566 251.625 163.156C251.864 164.979 252.661 166.736 253.656 168.281C254.372 169.392 255.522 170.149 256.625 170.875C257.399 171.385 258.306 171.651 259.188 171.938C259.675 172.096 260.21 172.151 260.719 172.219C261.587 172.335 262.47 172.314 263.344 172.281C263.509 172.275 263.678 172.258 263.844 172.25C263.991 172.243 264.134 172.227 264.281 172.219C268.517 172.485 272.236 170.032 273.875 166.375C274.813 165.94 275.742 165.474 276.688 165.062C279.321 163.915 282.098 163.138 284.844 162.312C287.432 161.534 290.002 160.708 292.562 159.844C308.72 154.389 324.956 149.142 341.562 145.219C347.178 143.876 350.655 138.24 349.312 132.625C348.306 128.414 344.862 125.421 340.844 124.75Z" fill="#01aaff" stroke="none"/>
</g>
<g opacity="1">
<path d="M313.406 160.719C312.06 160.895 310.714 161.332 309.469 162.062C307.439 163.262 305.404 164.457 303.375 165.656C302.368 166.252 301.385 166.97 300.344 167.5C298.871 168.25 297.239 168.784 295.719 169.438C294.064 170.149 292.419 170.919 290.75 171.594C288.178 172.633 285.537 173.53 282.938 174.5C275.446 177.295 267.875 180 260.688 183.531C255.849 185.909 251.277 188.665 246.969 191.906C242.597 195.188 241.718 201.41 245 205.781C248.282 210.153 254.473 211.032 258.844 207.75C268.819 200.281 280.892 196.812 292.531 192.844C294.434 192.195 296.37 191.587 298.25 190.875C300.558 190.001 302.815 189.011 305.094 188.062C306.607 187.432 308.191 186.855 309.656 186.125C311.114 185.399 312.528 184.476 313.938 183.656C315.975 182.47 318.025 181.28 320.062 180.094C325.042 177.173 326.702 170.792 323.781 165.812C321.59 162.078 317.445 160.189 313.406 160.719Z" fill="#01aaff" stroke="none"/>
</g>
<g opacity="1">
<path d="M411.156 74.125C401.287 74.9787 392.625 80.5035 384.812 86.1875C361.325 103.275 339.784 124.169 326.375 150.25C322.995 156.824 319.885 163.799 318.344 171.062C317.49 175.084 317.184 179.28 318.156 183.312C318.945 186.585 320.771 189.354 323.125 191.719C328.085 196.702 334.821 198.942 341.75 199.125C346.715 199.256 351.639 198.409 356.5 197.5C359.377 196.962 362.258 196.429 365.125 195.844C377.851 193.245 390.497 190.152 403.375 188.375C407.203 187.847 411.047 187.437 414.906 187.219C419.254 186.973 423.66 186.905 427.969 187.625C428.379 187.693 428.781 187.758 429.188 187.844C429.559 187.922 429.946 188.027 430.312 188.125C431.292 188.388 432.294 188.695 433.188 189.188C433.272 189.234 434.073 189.873 434.094 189.875C434.127 189.878 434.129 190.282 434.125 190.5C434.07 193.229 431.984 196.185 430.438 198.281C426.5 203.62 421.516 208.142 416.469 212.406C409.155 218.586 401.518 224.49 393.688 230C385.034 236.089 375.921 241.789 366.062 245.719C361.538 247.522 356.733 249.159 351.844 249.562C350.179 249.7 347.911 249.862 346.5 248.75C346.482 248.736 346.455 248.733 346.438 248.719C346.393 248.673 346.398 248.657 346.375 248.625C346.258 248.465 346.145 248.273 346.062 248.094C345.814 247.555 345.648 246.98 345.5 246.406C345.179 245.161 344.982 243.902 344.844 242.625C344.188 236.561 344.684 230.4 345.188 224.344C345.663 218.59 341.379 213.538 335.625 213.062C329.871 212.587 324.819 216.871 324.344 222.625C323.736 230.019 323.28 237.477 324.094 244.875C324.545 248.979 325.379 253.112 327.125 256.875C327.966 258.688 329.01 260.394 330.281 261.938C331.532 263.457 333.014 264.835 334.625 265.969C342.465 271.487 352.468 271.168 361.406 269.062C371.62 266.656 381.26 262.164 390.312 256.938C403.444 249.357 415.598 240.069 427.281 230.438C434.77 224.264 442.161 217.596 447.781 209.625C451.089 204.933 453.809 199.606 454.531 193.844C454.848 191.322 454.834 188.755 454.375 186.25C454.014 184.278 453.402 182.353 452.5 180.562C448.793 173.204 441.17 169.341 433.406 167.719C426.064 166.185 418.472 166.346 411.031 166.938C397.791 167.991 384.794 170.823 371.844 173.656C366.261 174.878 360.672 176.068 355.062 177.156C352.392 177.674 349.728 178.223 347.031 178.594C344.705 178.914 342.167 179.199 339.844 178.688C339.118 178.528 338.414 178.294 337.812 177.844C337.771 177.813 337.727 177.782 337.688 177.75C337.693 177.595 337.701 177.43 337.719 177.25C337.81 176.298 337.997 175.367 338.219 174.438C338.815 171.934 339.692 169.508 340.656 167.125C343.579 159.906 347.424 153.069 351.781 146.625C362.924 130.146 377.612 116.316 393.469 104.438C397.227 101.623 401.016 98.7697 405.156 96.5312C403.933 98.6051 402.686 100.66 401.438 102.719C397.182 109.734 393.536 116.731 392 124.875C390.994 130.248 394.534 135.431 399.906 136.438C405.279 137.444 410.431 133.904 411.438 128.531C413.402 117.935 421.45 109.875 425.656 100.219C427.714 95.4939 429.292 90.1305 428.062 84.9688C427.704 83.4648 427.13 82.0032 426.312 80.6875C423.001 75.358 417.108 73.6102 411.156 74.125Z" fill="#01aaff" stroke="none"/>
</g>
</g>
</svg>
