<?xml version="1.0" encoding="UTF-8" standalone="no"?>
<!DOCTYPE svg PUBLIC "-//W3C//DTD SVG 1.1//EN" "http://www.w3.org/Graphics/SVG/1.1/DTD/svg11.dtd">
<!-- Created with Vectornator (http://vectornator.io/) -->
<svg height="100%" stroke-miterlimit="10" style="fill-rule:nonzero;clip-rule:evenodd;stroke-linecap:round;stroke-linejoin:round;" version="1.1" viewBox="0 0 1000 500" width="100%" xml:space="preserve" xmlns="http://www.w3.org/2000/svg" xmlns:vectornator="http://vectornator.io" xmlns:xlink="http://www.w3.org/1999/xlink">
<defs/>
<g id="Ebene-1" vectornator:layerName="Ebene 1">
<path d="M633.796 127.34C633.797 127.339 644.246 124.083 642.283 127.348C640.221 130.777 622.428 129.491 618.218 129.521C591.717 129.711 565.116 128.91 538.645 126.848C495.71 123.504 452.799 124.684 409.748 125.425C400.935 125.577 391.969 125.689 383.189 126.099C372.984 126.575 361.963 128.905 351.937 126.667" fill="none" opacity="1" stroke="#01aaff" stroke-linecap="round" stroke-linejoin="round" stroke-width="29.5809"/>
<path d="M712.221 181.631C722.019 183.818 733.614 184.554 743.769 183.958C744.995 183.886 741.394 183.302 740.176 183.156C738.323 182.932 736.445 182.996 734.585 182.851C729.304 182.439 724.007 182.062 718.71 182.136C705.536 182.322 692.551 181.425 679.373 180.9C644.789 179.524 610.21 178.043 575.639 176.606C511.645 173.946 448.221 173.149 384.239 176.321C356.397 177.701 328.788 177.694 300.968 177.538C284.732 177.448 268.243 178.168 252.245 176.093C245.195 175.179 237.777 175.693 230.98 174.176" fill="none" opacity="1" stroke="#01aaff" stroke-linecap="round" stroke-linejoin="round" stroke-width="29.5809"/>
<path d="M622.202 242.648C627.395 241.355 635.181 241.203 640.475 241.068C641.396 241.045 642.25 241.65 643.171 241.67C643.856 241.685 645.834 241.007 645.168 241.173C637.693 243.034 630.076 241.356 622.403 241.75C601.315 242.833 580.512 241.73 559.402 240.89C538.892 240.074 518.389 238.351 497.902 237.536C476.585 236.687 455.048 238.102 433.802 237.374C427.036 237.142 420.473 238.61 413.732 238.552C404.802 238.476 395.467 237.913 386.676 237.228C382.932 236.937 379.203 235.695 375.494 236.618" fill="none" opacity="1" stroke="#01aaff" stroke-linecap="round" stroke-linejoin="round" stroke-width="29.5809"/>
</g>
</svg>
