<?xml version="1.0" encoding="UTF-8" standalone="no"?>
<!DOCTYPE svg PUBLIC "-//W3C//DTD SVG 1.1//EN" "http://www.w3.org/Graphics/SVG/1.1/DTD/svg11.dtd">
<!-- Created with Vectornator (http://vectornator.io/) -->
<svg height="100%" stroke-miterlimit="10" style="fill-rule:nonzero;clip-rule:evenodd;stroke-linecap:round;stroke-linejoin:round;" version="1.1" viewBox="0 0 1000 500" width="100%" xml:space="preserve" xmlns="http://www.w3.org/2000/svg" xmlns:vectornator="http://vectornator.io" xmlns:xlink="http://www.w3.org/1999/xlink">
<defs/>
<g id="Ebene-1" vectornator:layerName="Ebene 1">
<g opacity="1">
<path d="M243.844 120.406C239.43 120.523 235.622 122.485 231.938 124.688C230.248 125.697 228.65 126.669 227.125 127.938C225.901 128.955 224.837 130.122 223.719 131.25C222.285 132.696 220.766 134.075 219.312 135.5C216.785 137.978 214.289 140.503 211.844 143.062C203.238 152.072 195.161 161.566 187.25 171.188C176.498 184.264 166.106 197.587 156.406 211.469C138.741 236.75 123.143 263.402 109.094 290.844C103.655 301.466 98.4996 312.23 93.5625 323.094C90.9703 328.798 88.3737 334.519 86.0625 340.344C81.5228 351.786 78.0907 363.566 75.125 375.5C74.7598 376.97 74.2848 378.391 73.9688 379.875C73.5907 381.65 73.5033 383.388 73.375 385.188C73.1237 388.713 73.1333 392.268 74.4062 395.625C75.524 398.573 77.3989 401.195 79.9375 403.094C85.8357 407.505 94.3182 407.454 100.062 402.781C103.221 400.212 104.994 396.795 106.375 393.094C109.582 388.379 112.608 383.528 115.719 378.75C120.201 371.868 118.257 362.67 111.375 358.188C111.323 358.154 111.271 358.127 111.219 358.094C114.179 349.786 117.788 341.744 121.438 333.719C126.186 323.279 131.205 312.987 136.438 302.781C150.139 276.056 165.536 250.145 182.938 225.656C190.866 214.5 199.281 203.698 207.969 193.125C211.237 189.147 214.536 185.202 217.875 181.281C215.835 187.785 213.727 194.28 211.781 200.812C205.81 220.861 200.399 241.058 194.938 261.25C190.811 276.503 186.612 291.728 182.438 306.969C181.215 311.433 179.994 315.916 178.75 320.375C176.576 328.168 174.379 335.92 172.594 343.812C171.972 346.563 170.925 349.241 170.5 352.031C170.266 353.571 170.391 355.131 170.438 356.688C170.46 357.451 170.717 358.345 170.938 359.062C171.401 360.568 172.064 362.018 172.969 363.312C173.886 364.626 175.054 365.783 176.281 366.812C176.639 367.113 177.024 367.356 177.406 367.625C177.411 367.628 177.434 367.63 177.438 367.625C177.63 367.743 177.801 367.861 178 367.969C178.966 368.495 179.584 368.824 180.625 369.188C182.703 369.914 184.934 370.165 187.125 369.969C189.1 369.792 191.02 369.22 192.781 368.312C192.946 368.228 193.376 368.032 193.562 367.875C194.869 366.775 196.205 365.743 197.469 364.594C198.129 363.993 198.582 363.158 199.062 362.406C199.498 361.725 200.086 360.701 200.469 360C203.17 355.051 204.911 349.704 206.594 344.344C208.52 338.21 210.926 332.223 213.219 326.219C216.465 317.717 219.818 309.291 223.5 300.969C231.142 283.697 240.027 266.915 249.625 250.656C260.132 232.857 271.62 215.526 284.375 199.25C287.545 195.205 290.9 191.299 294.219 187.375C291.058 197.736 287.813 208.066 284.688 218.438C279.669 235.089 274.92 251.816 270.344 268.594C266.881 281.291 263.635 294.055 260.281 306.781C257.716 316.515 255.099 326.268 253.188 336.156C251.946 342.578 251.032 349.018 250.438 355.531C249.651 364.17 256.017 371.808 264.656 372.594C273.295 373.38 280.933 367.014 281.719 358.375C282.929 345.024 286.084 332.035 289.469 319.094C291.39 311.75 293.295 304.406 295.219 297.062C300.682 276.209 306.391 255.425 312.5 234.75C316.95 219.689 321.727 204.736 326.219 189.688C327.301 186.062 328.384 182.416 329.438 178.781C330.279 175.879 331.184 172.989 331.938 170.062C332.435 168.132 332.795 166.196 333.219 164.25C333.664 162.208 334.134 160.169 334.406 158.094C335.168 152.295 334.6 146.283 331.375 141.25C330.618 140.069 329.756 138.976 328.781 137.969C327.384 136.525 325.745 135.276 324 134.281C322.046 133.167 319.903 132.346 317.688 131.938C313.196 131.11 308.577 131.873 304.469 133.812C302.202 134.882 300.135 136.277 298.094 137.719C289.325 143.913 282.917 152.119 276.125 160.281C269.042 168.793 261.851 177.219 255.219 186.094C250.811 191.992 246.595 198.008 242.438 204.094C242.685 203.263 242.906 202.424 243.156 201.594C245.958 192.295 248.933 183.046 251.844 173.781C253.104 169.768 254.311 165.746 255.625 161.75C256.335 159.591 257.217 157.468 257.938 155.312C258.493 153.651 258.89 151.97 259.344 150.281C259.796 148.597 260.41 146.974 260.844 145.281C262.317 139.533 261.961 133.031 258.531 128C258.025 127.257 257.515 126.537 256.906 125.875C256.217 125.126 255.463 124.402 254.656 123.781C253.872 123.178 253.035 122.673 252.156 122.219C251.317 121.785 250.432 121.41 249.531 121.125C247.666 120.535 245.8 120.354 243.844 120.406Z" fill="#01aaff" stroke="none"/>
</g>
<g opacity="1">
<path d="M368.344 107.656C363.589 108.078 359.111 110.79 356.625 115.281C353.803 120.376 351.402 125.652 349.406 131.125C345.581 141.616 343.185 152.537 340.719 163.406C339.305 169.634 337.825 175.829 336.438 182.062C334.285 191.735 332.215 201.438 330.125 211.125C327.981 221.061 325.74 230.964 323.219 240.812C319.425 255.628 315.225 270.347 311.406 285.156C308.102 297.972 305.089 310.842 302.312 323.781C300.662 331.471 299.043 339.2 297.469 346.906C296.388 352.199 295.538 357.583 293.938 362.75C292.699 366.747 290.991 370.467 289.25 374.25C287.975 375.813 286.625 377.347 285.656 379.125C285.24 379.888 284.83 380.642 284.562 381.469C284.114 382.853 283.61 384.266 283.531 385.719C283.428 387.623 283.416 389.601 284.031 391.406C284.838 393.774 286.039 396.085 287.719 397.938C289.254 399.63 291.338 400.78 293.406 401.75C294.83 402.418 296.44 402.577 298 402.781C298.932 402.903 299.905 402.776 300.844 402.719C301.745 402.664 303.194 402.378 304.062 402.156C307.325 401.322 310.316 399.704 312.969 397.656C314.494 396.479 315.804 395.024 317.344 393.875C318.1 393.311 319.021 392.863 319.844 392.406C321.128 391.693 322.433 391.025 323.75 390.375C326.876 388.831 330.048 387.356 333.219 385.906C344.102 380.93 355.406 376.597 367.25 374.594C369.839 374.156 372.5 373.75 375.125 373.625C378.645 373.458 382.146 373.509 385.656 373.125C393.995 372.213 402.462 369.126 407.375 361.938C409.444 358.911 410.658 355.422 411.219 351.812C411.528 349.824 411.563 347.847 411.688 345.844C411.868 342.946 412.37 340.003 412.75 337.125C414.925 320.668 417.657 304.297 420.281 287.906C422.1 276.55 424.124 265.22 426.188 253.906C427.406 247.224 428.679 240.569 430 233.906C430.567 231.048 431.103 228.16 431.719 225.312C432.426 222.044 433.237 218.787 434 215.531C434.767 212.257 435.499 208.982 436.312 205.719C440.275 189.82 445.137 174.147 449.344 158.312C451.504 150.181 453.426 142.011 455.312 133.812C457.252 125.358 451.955 116.94 443.5 115C435.045 113.06 426.627 118.326 424.688 126.781C422.889 134.64 421.061 142.486 419 150.281C414.77 166.279 409.884 182.092 405.906 198.156C404.96 201.977 404.112 205.823 403.219 209.656C402.516 212.67 401.776 215.693 401.125 218.719C400.474 221.743 399.911 224.808 399.312 227.844C397.885 235.086 396.504 242.331 395.188 249.594C393.792 257.297 392.391 264.992 391.125 272.719C388.375 289.501 385.751 306.321 383.344 323.156C382.554 328.678 381.866 334.183 381.188 339.719C381.074 340.644 381.049 341.578 380.969 342.5C379.437 342.613 377.91 342.646 376.375 342.688C371.139 342.831 365.929 343.515 360.781 344.469C348.972 346.657 337.676 350.58 326.688 355.312C327.484 351.293 328.28 347.266 329.094 343.25C331.601 330.884 334.226 318.537 337.094 306.25C341.64 286.776 347.271 267.568 352.188 248.188C355.716 234.281 358.658 220.277 361.656 206.25C364.472 193.078 367.486 179.947 370.469 166.812C373.363 154.068 376.278 141.216 382.656 129.688C386.634 122.502 384.029 113.446 376.844 109.469C374.149 107.977 371.197 107.403 368.344 107.656Z" fill="#01aaff" stroke="none"/>
</g>
<g opacity="1">
<path d="M577.156 84.7188C574.917 84.6333 572.66 84.7218 570.469 84.9375C565.138 85.4621 559.997 87.3069 555.188 89.5938C547.707 93.1507 540.674 97.777 534 102.656C519.322 113.386 506.353 126.252 494.125 139.656C482.686 152.196 471.474 164.941 460.781 178.125C452.467 188.376 444.468 198.911 436.719 209.594C431.17 217.243 425.884 225.141 421.688 233.625C419.243 238.567 417.201 243.617 416.094 249.031C415.821 250.364 415.281 251.664 415 253C414.344 256.118 414.256 259.328 415.031 262.438C415.47 264.197 416.164 265.88 417.094 267.438C419.811 271.987 424.373 275.035 429.438 276.375C431.595 276.946 433.799 277.109 436 277.406C437.438 277.601 438.827 277.828 440.281 277.906C443.539 278.081 446.765 277.765 449.969 277.188C452.74 276.688 455.502 276.052 458.219 275.312C466.347 273.101 474.244 270.077 482.469 268.219C488.068 266.954 493.747 266.016 499.406 265.062C509.028 263.442 518.678 262.079 528.344 260.75C542.122 258.856 555.864 256.781 569.594 254.562C577.177 253.337 584.783 252.135 592.406 251.188C595.235 250.836 598.062 250.417 600.906 250.219C603.79 250.018 606.671 249.901 609.562 249.906C610.758 249.908 611.962 249.927 613.156 249.938C613.149 249.959 613.132 249.98 613.125 250C612.473 251.776 611.455 253.425 610.469 255.031C609.186 257.12 607.8 259.162 606.375 261.156C600.264 269.705 593.481 277.704 586.375 285.438C568.177 305.243 548.388 323.769 526.438 339.375C510.778 350.508 493.89 360.192 475.75 366.656C469.365 368.932 462.809 370.811 456.156 372.125C450.549 373.233 444.809 373.955 439.094 373.375C430.465 372.5 422.582 367.919 416.688 361.656C414.275 359.093 412.038 356.099 411 352.688C410.67 351.603 410.763 350.335 410.75 349.219C410.732 347.705 410.74 346.201 410.75 344.688C410.807 336.013 403.831 328.932 395.156 328.875C386.482 328.818 379.401 335.826 379.344 344.5C379.308 350.291 379.241 356.046 380.906 361.656C383.315 369.771 388.071 377.066 393.844 383.188C403.306 393.222 415.831 400.822 429.406 403.594C443.948 406.563 458.831 404.183 472.969 400.344C495.454 394.238 516.557 383.593 535.938 370.781C562.366 353.311 585.916 331.789 607.375 308.562C616.503 298.682 625.234 288.438 632.906 277.375C637.225 271.147 641.493 264.472 643.312 257.031C644.464 252.323 645.263 247.486 644.969 242.625C644.708 238.306 643.457 234.032 641.062 230.406C638.15 225.996 633.609 222.796 628.812 220.719C627.104 219.979 625.334 219.326 623.5 219C622.267 218.781 621.001 218.702 619.75 218.656C618.184 218.599 616.411 218.781 614.844 219.062C608.764 219.009 602.684 219.059 596.625 219.625C590.687 220.18 584.772 221.093 578.875 221.969C567.158 223.71 555.516 225.799 543.812 227.625C524.689 230.608 505.436 232.826 486.406 236.406C478.672 237.861 471.051 239.569 463.531 241.906C458.712 243.404 453.949 245.073 449.062 246.344C450.24 244.011 451.535 241.718 452.875 239.5C456.75 233.084 461.192 227.042 465.656 221.031C469.199 216.26 472.729 211.444 476.375 206.75C486.398 193.847 496.959 181.424 507.781 169.188C517.021 158.741 526.442 148.381 536.75 138.969C543.708 132.615 551.102 126.726 559.031 121.625C563.064 119.031 567.497 116.218 572.125 114.844C573.71 114.373 575.363 114.482 577 114.562C577.032 114.564 577.062 114.56 577.094 114.562C577.149 114.783 577.204 114.996 577.25 115.219C577.506 116.455 577.69 117.736 577.719 119C577.748 120.297 577.388 121.596 577.188 122.875C576.787 125.422 576.374 127.959 575.938 130.5C574.812 137.049 573.404 143.557 571.125 149.812C567.565 159.583 562.415 168.662 557.312 177.688C553.269 184.836 555.789 193.894 562.938 197.938C570.086 201.981 579.175 199.492 583.219 192.344C590.083 180.214 596.803 167.907 600.938 154.531C602.257 150.262 603.281 145.912 604.156 141.531C605.011 137.253 605.725 132.934 606.406 128.625C606.828 125.961 607.33 123.294 607.438 120.594C607.591 116.741 607.175 112.86 606.375 109.094C605.088 103.036 602.718 97.3324 598.25 92.9062C596.541 91.213 594.601 89.7647 592.5 88.5938C589.793 87.0851 586.816 86.0683 583.781 85.4688C581.616 85.0411 579.395 84.8042 577.156 84.7188Z" fill="#01aaff" stroke="none"/>
</g>
<g opacity="1">
<path d="M675.469 105.062C671.676 104.955 668.781 108.707 665.781 111.031C664.939 111.684 664.674 112.833 664.188 113.781C663.617 114.892 663.386 116.312 663.125 117.5C663.063 117.784 663.078 118.086 663.031 118.375C663.038 118.317 663.006 118.504 663 118.562C662.988 118.672 662.981 118.765 662.969 118.875C662.807 120.063 662.669 121.268 662.531 122.438C662.386 123.671 662.234 124.891 662.094 126.125C661.886 127.963 661.702 129.818 661.5 131.656C660.334 142.289 659.284 152.979 657.5 163.531C656.513 169.367 655.125 175.113 653.656 180.844C651.59 188.907 649.369 196.934 647.438 205.031C642.38 226.238 637.633 247.541 633 268.844C626.492 298.765 620.364 328.783 615.375 359C613.785 368.633 612.925 378.334 611.844 388.031C611.334 392.597 610.701 397.138 610.062 401.688C608.867 410.279 614.877 418.211 623.469 419.406C632.06 420.602 639.992 414.623 641.188 406.031C641.856 401.187 642.5 396.331 643.031 391.469C644.031 382.317 644.802 373.155 646.281 364.062C648.091 352.935 650.116 341.837 652.156 330.75C659.192 292.513 667.378 254.494 675.75 216.531C676.605 212.652 677.463 208.797 678.406 204.938C680.73 195.434 683.444 186.014 685.469 176.438C687.085 168.794 688.084 161.062 689.031 153.312C689.803 147.003 690.44 140.663 691.125 134.344C691.146 134.193 691.202 134.058 691.219 133.906C691.429 132.034 691.631 130.153 691.844 128.281C691.963 127.231 692.099 126.176 692.219 125.125C692.477 122.852 692.966 120.347 692.625 118.031C692.539 117.445 692.512 116.839 692.312 116.281C691.757 114.726 691.749 112.635 690.375 111.719C685.854 108.704 680.901 105.217 675.469 105.062Z" fill="#01aaff" stroke="none"/>
</g>
<g opacity="1">
<path d="M853.656 93.625C850.815 93.5866 847.947 93.7043 845.125 93.9688C836.273 94.7983 827.537 97.36 819.25 100.5C801.725 107.14 785.695 117.342 771.125 129.031C754.042 142.736 738.595 158.635 724.688 175.531C690.94 216.532 666.14 265.392 654.688 317.344C653.446 322.974 652.349 328.625 651.406 334.312C650.071 342.365 649.099 350.544 649.188 358.719C649.267 366.021 650.181 373.41 652.656 380.312C654.417 385.222 656.994 389.848 660.438 393.781C663.386 397.149 666.93 399.952 670.875 402.062C673.879 403.669 677.099 404.879 680.406 405.688C683.061 406.337 685.774 406.751 688.5 406.938C707.704 408.252 725.208 398.449 741.031 388.781C744.274 386.8 747.524 384.851 750.75 382.844C769.705 371.05 787.83 358 805.875 344.875C832.616 325.425 859.452 306.048 888.219 289.656C893.043 286.907 897.903 284.194 902.875 281.719C911.448 277.45 920.26 273.652 928.875 269.469C936.676 265.676 939.918 256.301 936.125 248.5C932.332 240.699 922.926 237.426 915.125 241.219C903.319 246.966 891.236 252.138 879.719 258.469C855.769 271.635 833.059 286.816 810.812 302.656C791.887 316.132 773.37 330.196 754.188 343.312C749.641 346.421 745.033 349.48 740.406 352.469C736.804 354.796 733.186 357.068 729.531 359.312C726.647 361.084 723.775 362.879 720.875 364.625C718.635 365.974 716.389 367.279 714.094 368.531C707.463 372.151 699.604 376.041 691.875 376.062C688.908 376.071 685.309 375.529 683.406 373.062C682.14 371.421 681.465 369.37 681 367.375C680.407 364.833 680.154 362.199 680.062 359.594C679.92 355.532 680.201 351.475 680.625 347.438C681.349 340.546 682.616 333.687 684.031 326.906C686.239 316.33 688.947 305.854 692.344 295.594C704.927 257.582 724.835 222.144 750.562 191.469C761.71 178.177 773.906 165.632 787.25 154.531C803.821 140.746 823.284 128.312 844.719 124.094C849.157 123.22 853.899 123.183 858.375 123.75C860.429 124.01 862.699 124.343 864.562 125.312C866.542 126.343 868.402 127.815 870.031 129.344C870.553 129.833 871.042 130.354 871.531 130.875C871.556 131.104 871.583 131.333 871.594 131.562C871.639 132.506 871.663 133.619 871.656 134.562C871.629 138.641 871.154 142.699 870.312 146.688C869.46 150.726 867.344 154.462 865.594 158.156C864.29 160.908 863.066 163.722 861.75 166.469C860.026 170.068 858.241 173.628 856.5 177.219C852.916 184.608 856.017 193.509 863.406 197.094C870.796 200.678 879.697 197.577 883.281 190.188C885.044 186.555 886.848 182.953 888.594 179.312C889.928 176.53 891.145 173.693 892.469 170.906C894.272 167.109 896.149 163.342 897.562 159.375C898.575 156.534 899.322 153.651 899.875 150.688C901.138 143.919 901.677 137.006 901.344 130.125C901.192 126.996 900.939 123.865 899.938 120.875C898.059 115.265 893.772 110.63 889.438 106.75C885.599 103.314 881.262 100.2 876.562 98.0625C872.013 95.9934 867.066 94.8494 862.125 94.2188C859.313 93.8598 856.498 93.6634 853.656 93.625Z" fill="#01aaff" stroke="none"/>
</g>
</g>
</svg>
