<?xml version="1.0" encoding="UTF-8" standalone="no"?>
<!DOCTYPE svg PUBLIC "-//W3C//DTD SVG 1.1//EN" "http://www.w3.org/Graphics/SVG/1.1/DTD/svg11.dtd">
<!-- Created with Vectornator (http://vectornator.io/) -->
<svg height="100%" stroke-miterlimit="10" style="fill-rule:nonzero;clip-rule:evenodd;stroke-linecap:round;stroke-linejoin:round;" version="1.1" viewBox="0 0 1000 500" width="100%" xml:space="preserve" xmlns="http://www.w3.org/2000/svg" xmlns:vectornator="http://vectornator.io" xmlns:xlink="http://www.w3.org/1999/xlink">
<defs/>
<g id="Ebene-1" vectornator:layerName="Ebene 1">
<g opacity="1">
<path d="M68.375 131.438C61.4596 131.307 55.1667 136.019 53.5938 143.031C49.0121 163.376 44.147 183.665 39 203.875C32.7534 228.402 26.1672 252.859 20 277.406C17.1665 288.685 14.3653 299.957 11.7188 311.281C9.07666 322.586 6.60876 333.955 4.0625 345.281C2.1742 353.748 7.50226 362.143 15.9688 364.031C24.4352 365.92 32.8304 360.592 34.7188 352.125C37.2073 340.878 39.6044 329.601 42.1875 318.375C43.6359 312.081 45.2013 305.817 46.6875 299.531C58.5142 249.51 71.4147 199.729 82.625 149.562C84.4227 141.549 79.3886 133.579 71.375 131.781C70.3733 131.557 69.3629 131.456 68.375 131.438Z" fill="#01aaff" stroke="none"/>
</g>
<g opacity="1">
<path d="M135.031 119.375C127.726 119.461 121.246 124.64 119.812 132.094C115.642 153.868 112.49 175.831 108.25 197.594C103.817 220.346 98.7676 242.971 94.4688 265.75C92.207 249.914 91.6469 233.85 90.5 217.906C89.5928 205.294 88.1322 192.772 85.5938 180.375C84.6396 175.715 83.4345 171.134 82.375 166.5C81.6367 163.271 81.1667 159.995 80.2188 156.812C79.0597 152.921 77.3156 149.232 74.8438 146C69.5417 139.067 61.3365 134.33 52.4062 136.75C51.687 136.945 50.9955 137.171 50.3125 137.469C49.4233 137.857 48.5268 138.275 47.7188 138.812C46.7212 139.476 45.7481 140.21 44.9062 141.062C44.0442 141.935 43.272 142.927 42.625 143.969C42.0004 144.975 41.5182 146.039 41.125 147.156C40.7637 148.183 40.5058 149.263 40.375 150.344C40.2356 151.495 40.2411 152.686 40.3125 153.844C40.3712 154.796 40.5601 155.728 40.7812 156.656C40.9888 157.527 41.2835 158.379 41.5938 159.219C41.81 159.804 42.079 160.373 42.3438 160.938C42.5429 161.362 42.7828 161.771 43 162.188C43.1634 162.5 43.3317 162.783 43.5 163.094C43.6116 163.3 43.7287 163.516 43.8438 163.719C43.7868 163.568 43.7419 163.433 43.6875 163.281C43.7643 163.532 43.8801 163.756 43.9688 164C45.5915 168.46 49.1417 171.735 53.4062 173.094C53.7564 174.603 54.1003 176.119 54.4688 177.625C55.2936 180.997 56.0478 184.375 56.7188 187.781C57.9627 194.096 58.9485 200.474 59.625 206.875C60.5467 215.596 61.018 224.373 61.5312 233.125C62.3362 246.853 63.1605 260.614 65.25 274.219C66.8823 284.847 69.8419 295.216 71.625 305.812C72.979 313.859 73.565 322.017 74.4375 330.125C74.7271 332.816 75.0292 335.507 75.4062 338.188C75.5246 339.029 75.6628 339.878 75.7812 340.719C75.8095 340.919 75.8472 341.112 75.875 341.312C75.8779 341.333 75.8721 341.354 75.875 341.375C75.8725 341.428 75.8467 341.478 75.8438 341.531C75.8275 341.828 75.8279 342.11 75.8125 342.406C75.7654 343.315 75.7017 344.214 75.7188 345.125C75.7663 347.665 76.1143 350.215 77.0625 352.594C79.0028 357.461 82.8195 361.133 87.8125 362.781C88.706 363.076 89.6311 363.273 90.5625 363.406C91.5125 363.543 92.4784 363.628 93.4375 363.594C94.5361 363.555 95.6453 363.424 96.7188 363.188C97.7769 362.954 98.8178 362.617 99.8125 362.188C100.766 361.775 101.669 361.266 102.531 360.688C104.597 359.3 106.286 357.446 107.594 355.344C109.064 352.981 109.883 350.277 110.406 347.562C110.61 346.506 110.723 345.428 110.938 344.375C111.144 343.361 111.505 342.38 111.75 341.375C111.994 340.373 112.252 339.228 112.469 338.219C113.07 335.41 113.552 332.595 114.125 329.781C115.304 323.995 116.577 318.245 117.656 312.438C120.449 297.408 122.784 282.28 125.75 267.281C129.956 246.014 134.788 224.866 138.969 203.594C143.251 181.805 146.444 159.831 150.656 138.031C152.295 129.513 146.706 121.295 138.188 119.656C137.123 119.451 136.075 119.363 135.031 119.375Z" fill="#01aaff" stroke="none"/>
</g>
<g opacity="1">
<path d="M160.031 153.438C151.837 152.888 144.768 159.087 144.219 167.281C142.944 186.016 141.535 204.736 139.5 223.406C137.473 242.003 135.048 260.57 132.219 279.062C130.707 288.942 129.155 298.807 127.281 308.625C125.777 316.505 124.099 324.366 122.969 332.312C122.148 338.083 121.635 343.862 121.469 349.688C121.239 358.359 128.079 365.583 136.75 365.812C145.421 366.042 152.646 359.203 152.875 350.531C153.168 338.316 155.764 326.404 158 314.438C159.915 304.188 161.407 293.858 162.844 283.531C168.118 245.625 171.35 207.427 173.875 169.25C174.425 161.056 168.226 153.987 160.031 153.438Z" fill="#01aaff" stroke="none"/>
</g>
<g opacity="1">
<path d="M230.406 265.406C228.366 265.439 226.296 265.873 224.312 266.75C212.437 272.032 200.883 277.932 189.719 284.594C173.37 294.35 157.809 305.556 143.094 317.625C140.034 320.135 137.036 322.724 133.938 325.188C129.042 329.079 123.977 332.768 118.938 336.469C118.926 336.477 118.918 336.491 118.906 336.5C116.933 337.04 115.022 337.986 113.344 339.375C111.29 341.071 109.204 342.71 107.125 344.375C105.665 345.545 104.152 346.688 102.875 348.062C101.867 349.148 101.18 350.507 100.375 351.75C99.7179 352.765 99.3219 354.491 99.125 355.656C98.6784 358.298 98.8973 361.026 99.875 363.531C100.436 364.968 101.166 366.257 102.125 367.469C103.487 369.19 105.158 370.446 107.062 371.5C107.327 371.646 107.573 371.86 107.875 371.875C111.368 372.046 114.847 372.381 118.344 372.375C118.849 372.374 119.317 372.043 119.781 371.844C120.206 371.661 120.589 371.462 121 371.25C122.819 370.311 124.505 369.023 126.188 367.875C129.272 365.77 132.339 363.612 135.375 361.438C141.099 357.337 146.809 353.18 152.406 348.906C157.4 345.093 162.212 341.078 167.219 337.281C188.895 320.845 212.099 306.451 237.031 295.5C244.965 291.993 248.538 282.715 245.031 274.781C242.401 268.831 236.526 265.308 230.406 265.406Z" fill="#01aaff" stroke="none"/>
</g>
<g opacity="1">
<path d="M243.062 186.562C241.023 186.615 238.975 187.073 237 187.969C226.576 192.734 216.79 198.603 207.094 204.688C201.864 207.969 196.652 211.256 191.438 214.562C173.235 226.104 154.975 237.579 136.562 248.781C129.54 253.04 127.304 262.196 131.562 269.219C135.821 276.241 144.977 278.477 152 274.219C172.088 262.079 192.217 249.983 212.344 237.906C217.097 235.054 221.853 232.216 226.594 229.344C234.211 224.728 241.836 220.221 249.969 216.562C257.869 212.98 261.364 203.682 257.781 195.781C255.095 189.856 249.181 186.406 243.062 186.562Z" fill="#01aaff" stroke="none"/>
</g>
<g opacity="1">
<path d="M255.219 118.094C254.176 118.123 253.118 118.253 252.062 118.5C243.95 120.418 236.021 122.883 228.25 125.906C216.822 130.352 205.843 135.855 194.906 141.375C189.625 144.041 184.298 146.648 179.031 149.344C170.767 153.574 162.595 157.974 154.094 161.719C153.496 161.982 152.882 162.212 152.281 162.469C147.598 159.588 141.527 159.429 136.594 162.531C134.461 163.452 132.284 164.355 130.312 165.594C128.82 166.531 127.347 167.634 126.219 169C125.521 169.844 124.801 170.708 124.312 171.688C123.576 173.163 122.83 174.685 122.562 176.312C122.239 178.278 122.193 180.324 122.562 182.281C122.919 184.169 123.749 185.998 124.719 187.656C125.485 188.966 126.59 190.014 127.688 191.062C128.398 191.742 129.268 192.248 130.094 192.781C132.702 194.464 135.946 195.397 139 195.781C146.385 196.71 153.515 194.159 160.281 191.5C167.165 188.795 173.899 185.672 180.562 182.469C191.587 177.169 202.593 171.877 213.625 166.594C224.449 161.41 235.362 156.253 246.781 152.5C250.864 151.158 255.033 150.061 259.219 149.094C267.666 147.12 272.911 138.666 270.938 130.219C269.21 122.828 262.521 117.891 255.219 118.094Z" fill="#01aaff" stroke="none"/>
</g>
<g opacity="1">
<path d="M395.25 54.0938C387.945 54.0521 381.377 59.1352 379.812 66.5625C377.897 75.6744 375.591 84.673 373.031 93.625C370.356 102.984 367.395 112.271 364.812 121.656C363.794 125.357 362.791 129.085 361.875 132.812C358.627 146.025 356.218 159.442 353.406 172.75C350.786 185.151 347.587 197.414 344.312 209.656C341.369 220.663 338.354 231.651 335.406 242.656C336.033 229.581 336.646 216.53 336.688 203.438C336.707 197.252 336.551 191.052 336.219 184.875C335.717 175.541 334.856 166.223 334.125 156.906C333.476 148.639 332.949 140.339 331 132.25C330.465 130.03 329.84 127.835 329.062 125.688C328.484 124.091 327.768 122.563 327.281 120.938C326.718 119.058 326.144 117.184 325.375 115.375C323.531 111.039 320.512 107.191 316.344 104.875C315.627 104.477 314.887 104.114 314.125 103.812C313.317 103.494 312.499 103.241 311.656 103.031C310.851 102.831 310.014 102.668 309.188 102.594C308.155 102.501 307.126 102.438 306.094 102.531C304.833 102.645 303.553 102.845 302.344 103.219C301.101 103.603 299.905 104.126 298.781 104.781C297.694 105.415 296.702 106.174 295.781 107.031C294.936 107.818 294.208 108.751 293.531 109.688C292.583 110.999 291.811 112.626 291.281 114.156C290.354 116.837 290.193 119.687 290.219 122.5C290.226 123.28 290.235 124.064 290.25 124.844C290.252 124.922 290.25 124.971 290.25 125.031C289.697 127.377 289.189 129.738 288.688 132.094C287.699 136.739 286.714 141.387 285.719 146.031C282.796 159.665 279.084 173.129 275.594 186.625C271.672 201.791 267.947 216.998 264.375 232.25C264.347 232.085 264.341 231.915 264.312 231.75C263.079 224.666 261.28 217.675 259.875 210.625C259.234 207.407 258.586 204.146 258.281 200.875C257.69 194.528 258.652 188.128 258.875 181.781C259.162 173.574 252.739 166.693 244.531 166.406C236.324 166.119 229.443 172.542 229.156 180.75C228.991 185.491 228.482 190.225 228.375 194.969C228.309 197.88 228.38 200.789 228.656 203.688C229.534 212.897 231.938 221.872 233.812 230.906C234.627 234.831 235.329 238.778 235.875 242.75C236.352 246.223 236.671 249.729 237 253.219C237.65 260.113 238.141 267.028 238.594 273.938C239.287 284.507 240.008 295.073 240.438 305.656C240.785 314.22 240.94 322.782 241.344 331.344C241.551 335.747 241.838 340.161 242.062 344.562C242.195 347.155 242.428 349.749 242.5 352.344C242.587 355.456 242.551 358.609 243.281 361.656C243.655 363.216 244.46 364.634 245.125 366.094C245.454 366.815 246.111 367.542 246.625 368.125C247.999 369.685 249.67 371 251.562 371.875C252.181 372.161 252.825 372.401 253.469 372.625C253.808 372.743 254.153 372.812 254.5 372.906C254.51 372.909 254.529 372.916 254.531 372.906C254.657 372.935 254.78 372.976 254.906 373C255.615 373.134 256.113 373.2 256.844 373.25C258.246 373.345 259.687 373.269 261.062 372.969C262.498 372.655 263.274 372.369 264.625 371.75C264.948 371.602 265.289 371.445 265.562 371.219C266.784 370.21 268.051 369.258 269.219 368.188C269.606 367.833 269.889 367.4 270.188 366.969C271.897 364.5 272.712 361.747 273.469 358.875C275.797 350.04 276.363 340.904 277.188 331.844C277.647 326.792 278.398 321.778 279.062 316.75C280.448 306.268 281.859 295.785 283.719 285.375C289.131 255.084 296.739 225.219 304.531 195.469C304.892 194.093 305.261 192.719 305.625 191.344C305.72 193.916 305.944 196.486 305.969 199.062C306.097 212.495 305.395 225.933 304.719 239.344C303.565 262.221 302.232 285.163 303.562 308.062C303.997 315.551 304.599 323.036 305.344 330.5C305.635 333.421 305.893 336.335 306.25 339.25C306.243 339.313 306.227 339.375 306.219 339.438C306.174 339.777 306.139 340.098 306.094 340.438C305.963 341.427 305.821 342.409 305.75 343.406C305.556 346.137 305.649 348.922 306.469 351.562C306.82 352.694 307.239 353.79 307.781 354.844C308.282 355.816 308.875 356.744 309.562 357.594C310.303 358.509 311.121 359.377 312.031 360.125C312.978 360.903 314.037 361.593 315.125 362.156C316.207 362.717 317.361 363.13 318.531 363.469C319.517 363.755 320.542 363.923 321.562 364.031C324.266 364.317 327.043 363.915 329.594 363C331.214 362.419 332.622 361.666 334.031 360.688C337.405 358.346 339.784 354.881 341.469 351.188C342.273 349.424 342.875 347.608 343.594 345.812C344.778 342.854 345.745 339.921 346.344 336.781C346.798 334.4 347.202 332 347.688 329.625C348.22 327.019 348.764 324.421 349.281 321.812C350.049 317.941 350.797 314.091 351.562 310.219C352.57 305.121 353.619 300.023 354.688 294.938C357.862 279.824 361.81 264.88 365.812 249.969C370.757 231.55 375.896 213.188 380.531 194.688C385.04 176.693 387.871 158.321 392.312 140.312C395.077 129.105 398.573 118.075 401.812 107C405.098 95.7679 408.116 84.4843 410.531 73.0312C412.319 64.5429 406.895 56.225 398.406 54.4375C397.345 54.2141 396.294 54.0997 395.25 54.0938Z" fill="#01aaff" stroke="none"/>
</g>
<g opacity="1">
<path d="M451.312 84.6875C450.131 84.736 448.948 84.8705 447.812 85.0938C444.318 85.7809 441.093 87.3012 438.156 89.2812C433.34 92.5283 429.697 96.9561 425.969 101.344C423.392 104.377 420.819 107.42 418.375 110.562C414.555 115.475 410.906 120.503 407.156 125.469C400.302 134.546 393.682 143.762 387.406 153.25C372.726 175.444 359.696 198.705 347.625 222.406C344.529 228.485 341.427 234.544 338.594 240.75C337.816 242.453 337.007 244.167 336.312 245.906C334.942 249.337 334.073 252.92 332.969 256.438C332.396 258.261 331.381 259.954 330.719 261.75C329.343 265.481 328.686 269.334 328.969 273.312C329.227 276.943 330.104 280.689 331.844 283.906C332.763 285.606 333.651 286.94 334.969 288.344C336.046 289.491 337.257 290.482 338.594 291.312C345.334 295.502 353.723 294.284 360.438 290.75C363.509 289.133 366.163 286.959 369.031 285.031C370.885 283.785 372.788 282.6 374.594 281.281C377.657 279.044 380.591 276.67 383.562 274.312C398.853 262.18 413.155 248.765 429.125 237.5C436.225 232.492 443.531 227.816 450.781 223.031C454.624 220.495 458.413 217.872 462.281 215.375C462.34 215.337 462.41 215.319 462.469 215.281C462.332 215.614 462.198 215.949 462.062 216.281C461.323 218.089 460.679 219.907 460.031 221.75C457.97 227.61 455.859 233.43 453.688 239.25C446.851 257.578 437.123 274.568 427.125 291.312C421.487 300.755 415.928 310.276 410.188 319.656C407.025 324.823 403.736 329.92 400.031 334.719C397.494 338.004 394.707 341.126 391.906 344.188C390.249 345.999 388.514 347.732 386.688 349.375C386.585 348.782 386.456 348.186 386.344 347.594C385.89 345.204 385.298 342.845 384.781 340.469C383.42 334.211 382.301 327.906 381.656 321.531C381.255 317.567 381.06 313.576 380.969 309.594C380.766 300.922 373.578 294.078 364.906 294.281C356.234 294.484 349.391 301.672 349.594 310.344C349.722 315.737 350.018 321.107 350.625 326.469C351.085 330.531 351.679 334.571 352.406 338.594C353.028 342.033 353.733 345.466 354.5 348.875C354.842 350.395 355.243 351.906 355.531 353.438C356.172 356.845 356.7 360.229 358 363.469C359.009 365.984 360.4 368.327 361.875 370.594C366.926 378.355 374.223 384.199 383.906 384.156C386.457 384.145 389.006 383.697 391.438 382.938C398.199 380.825 404.082 376.168 409.156 371.375C412.152 368.545 414.93 365.494 417.656 362.406C421.748 357.772 425.619 353.012 429.156 347.938C436.601 337.255 442.901 325.783 449.594 314.625C456.822 302.574 464.171 290.541 470.531 278C474.273 270.623 477.717 263.077 480.812 255.406C482.721 250.677 484.436 245.862 486.156 241.062C487.529 237.234 488.799 233.374 490.219 229.562C491.395 226.405 492.814 223.341 493.656 220.062C494.558 216.554 494.721 212.941 495 209.344C495.384 204.389 495.457 199.387 494.25 194.531C493.551 191.722 492.484 189.034 490.969 186.562C487.5 180.903 481.955 177.539 475.281 177.469C476.67 168.027 478.161 158.613 479.219 149.125C479.628 145.457 480.065 141.778 480.312 138.094C480.592 133.931 480.614 129.755 480.281 125.594C479.777 119.296 478.462 113.134 477 107C476.025 102.908 475.345 98.7486 473.031 95.125C468.604 88.1891 459.584 84.3479 451.312 84.6875ZM449.375 119.781C450.105 123.327 450.665 126.907 450.75 130.531C450.883 136.206 450.109 141.906 449.469 147.531C448.361 157.273 446.772 166.954 445.375 176.656C444.784 180.752 445.935 184.661 448.25 187.719C447.918 187.92 447.58 188.107 447.25 188.312C441.744 191.749 436.443 195.542 431.031 199.125C423.475 204.127 415.916 209.126 408.594 214.469C402.618 218.829 396.842 223.457 391.156 228.188C383.913 234.214 376.734 240.345 369.469 246.344C370.564 244.089 371.591 241.803 372.719 239.562C388.413 208.392 405.548 177.888 426.281 149.75C428.834 146.286 431.47 142.864 434.031 139.406C437.558 134.645 441.043 129.848 444.781 125.25C446.284 123.402 447.827 121.595 449.375 119.781Z" fill="#01aaff" stroke="none"/>
</g>
<g opacity="1">
<path d="M510.719 87.9375C509.462 88.0487 508.284 88.3048 507.094 88.7188C505.65 89.2211 504.364 89.9929 503.125 90.875C502.952 90.998 502.761 91.0869 502.625 91.25C501.406 92.7162 500.121 94.1371 498.969 95.6562C498.696 96.0159 498.52 96.4597 498.344 96.875C498.115 97.4118 497.936 97.947 497.75 98.5C497.336 99.7313 497.131 101.059 496.969 102.344C496.418 106.709 496.366 111.102 495.844 115.469C495.407 119.121 496.392 122.597 498.281 125.438C497.567 144.737 493.171 163.942 489.531 182.844C487.152 195.199 484.451 207.464 481.469 219.688C477.301 236.771 472.765 253.768 469.094 270.969C468.395 274.24 467.774 277.531 467.125 280.812C466.208 285.447 465.304 290.083 464.562 294.75C462.942 304.948 461.659 315.194 460.125 325.406C458.258 337.834 457.143 350.359 456.062 362.875C455.706 367.011 455.344 371.147 454.969 375.281C454.817 376.957 454.665 378.607 454.5 380.281C454.461 380.68 454.413 381.101 454.375 381.5C454.369 381.534 454.348 381.542 454.344 381.562C454.324 381.666 454.302 381.741 454.281 381.844C454.255 381.973 454.246 382.121 454.219 382.25C454.118 382.734 453.972 383.336 453.875 383.781C453.544 385.303 453.195 386.802 452.969 388.344C452.791 389.552 452.638 390.841 452.719 392.062C452.783 393.032 452.743 394.02 453.062 394.938C453.843 397.177 454.367 399.717 456 401.438C458.37 403.934 461.291 406.153 464.594 407.125C467.545 407.993 470.781 407.211 473.812 406.688C475.082 406.468 476.176 405.6 477.281 404.938C477.944 404.54 478.507 404.003 479.094 403.5C482.628 400.469 484.702 395.789 485.594 391.312C485.918 389.684 486.089 388.057 486.25 386.406C486.264 386.26 486.266 386.114 486.281 385.969C486.302 385.925 486.323 385.887 486.344 385.844C486.485 385.552 486.619 385.249 486.781 384.969C487.234 384.187 487.412 383.87 487.906 383.125C488.936 381.572 490.082 380.087 491.312 378.688C492.961 376.811 494.897 375.151 496.844 373.594C501.371 369.974 506.376 367.062 511.594 364.562C524.033 358.604 537.482 354.954 550.594 350.812C558.863 348.192 563.433 339.363 560.812 331.094C558.192 322.824 549.363 318.255 541.094 320.875C523.402 326.497 505.262 331.732 489.281 341.031C489.299 340.875 489.295 340.718 489.312 340.562C489.974 334.661 490.873 328.787 491.688 322.906C492.572 316.518 493.318 310.105 494.219 303.719C497.89 277.692 504.713 252.231 510.75 226.688C512.794 218.04 514.787 209.395 516.562 200.688C518.222 192.55 519.718 184.375 521.281 176.219C524.002 162.028 526.606 147.771 527.688 133.344C528.326 124.82 528.409 116.24 527.688 107.719C527.339 103.6 527.151 99.2325 525.094 95.5312C524.666 94.7623 524.295 93.875 523.594 93.3438C521.061 91.4252 518.223 89.9697 515.531 88.2812C515.261 88.1117 514.91 88.1376 514.594 88.0938C513.114 87.8884 512.214 87.8052 510.719 87.9375Z" fill="#01aaff" stroke="none"/>
</g>
<g opacity="1">
<path d="M555.781 150.75C552.708 150.61 549.553 151.483 546.75 152.75C544.865 153.602 543.518 155.349 542.156 156.906C541.395 157.777 540.971 158.896 540.469 159.938C539.465 162.019 539.244 164.456 539.031 166.719C538.726 169.967 538.563 173.238 538.5 176.5C538.287 187.547 539.292 198.581 538.875 209.625C538.073 230.886 533.435 251.668 530.188 272.625C529.463 277.298 528.745 281.991 528.188 286.688C527.636 291.33 527.286 296.002 526.844 300.656C526.043 309.294 532.394 316.95 541.031 317.75C549.669 318.55 557.325 312.2 558.125 303.562C558.523 299.155 558.812 294.741 559.312 290.344C559.805 286.012 560.478 281.655 561.125 277.344C563.711 260.121 567.001 243.013 568.344 225.625C568.987 217.299 569.296 208.973 569.031 200.625C568.897 196.375 568.71 192.12 568.562 187.875C571.74 184.251 573.079 179.155 571.719 174.156C570.59 170.026 570.206 165.696 568.844 161.625C568.436 160.408 567.939 159.181 567.25 158.094C566.846 157.456 566.448 156.775 565.938 156.219C565.03 155.232 564.212 154.103 563.031 153.469C560.758 152.247 558.359 150.868 555.781 150.75Z" fill="#01aaff" stroke="none"/>
</g>
<g opacity="1">
<path d="M626.969 248.125C624.929 248.138 622.836 248.549 620.844 249.406C617.681 250.78 614.508 252.053 611.25 253.188C602.367 256.281 593.231 258.606 584.312 261.594C579.447 263.224 574.689 265.081 569.906 266.938C562.703 269.734 555.53 272.673 548.469 275.812C546.623 276.633 544.79 277.476 542.938 278.281C539.854 279.622 536.723 280.825 533.719 282.344C527.073 285.703 520.15 290.775 518.125 298.312C517.217 301.694 517.406 305.181 518.188 308.562C518.376 309.378 518.582 310.111 518.812 310.906C518.884 311.152 518.96 311.379 519.031 311.625C519.186 312.16 519.051 311.432 519.031 311.406C519.836 319.579 527.108 325.555 535.281 324.75C543.454 323.945 549.43 316.642 548.625 308.469C548.621 308.427 548.598 308.386 548.594 308.344C550.618 307.462 552.652 306.668 554.688 305.812C560.996 303.159 567.295 300.526 573.719 298.156C580.958 295.485 588.209 292.775 595.594 290.531C602.89 288.314 610.295 286.441 617.562 284.125C622.907 282.422 628.123 280.451 633.281 278.25C641.249 274.82 644.93 265.593 641.5 257.625C638.927 251.649 633.089 248.086 626.969 248.125Z" fill="#01aaff" stroke="none"/>
</g>
<g opacity="1">
<path d="M639.344 182.875C636.327 182.652 633.197 183.32 630.375 184.938C619.688 191.113 608.667 196.547 597.406 201.594C593.285 203.441 589.131 205.259 584.938 206.938C576.912 210.15 568.539 212.347 560.438 215.344C556.428 216.827 552.289 218.472 548.656 220.75C545.749 222.573 543.269 224.913 541 227.469C539.563 229.087 538.239 230.801 536.719 232.344C530.96 238.199 531.02 247.616 536.875 253.375C542.73 259.134 552.147 259.074 557.906 253.219C559.563 251.532 561.088 249.73 562.625 247.938C562.981 247.522 563.373 247.058 563.75 246.656C563.869 246.529 564.001 246.434 564.125 246.312C564.215 246.225 564.289 246.121 564.375 246.031C564.381 246.025 564.396 246.04 564.406 246.031C564.678 245.907 564.947 245.781 565.219 245.656C565.558 245.501 565.908 245.336 566.25 245.188C566.927 244.893 567.72 244.582 568.406 244.312C570.769 243.385 573.171 242.568 575.594 241.812C582.334 239.71 589.177 237.935 595.812 235.5C613.156 229.135 629.947 221.317 646 212.188C653.526 207.873 656.127 198.276 651.812 190.75C649.116 186.046 644.372 183.246 639.344 182.875Z" fill="#01aaff" stroke="none"/>
</g>
<g opacity="1">
<path d="M655.062 125.25C654.021 125.176 652.95 125.202 651.875 125.344C641.229 126.774 630.684 128.699 620.219 131.125C601.118 135.554 582.416 141.509 563.625 147.062C556.204 149.256 548.635 150.99 541.281 153.406C538.751 154.238 536.257 155.16 533.812 156.219C532.615 156.738 531.424 157.253 530.312 157.938C528.037 159.339 526.1 161.172 524.438 163.25C523.493 164.431 522.766 165.795 521.781 166.938C516.504 173.23 517.333 182.629 523.625 187.906C529.917 193.184 539.285 192.355 544.562 186.062C545.306 185.169 546.022 184.235 546.688 183.281C546.766 183.168 546.785 183.117 546.844 183.031C547.483 182.782 548.134 182.54 548.781 182.312C551.223 181.456 553.687 180.757 556.188 180.094C563.257 178.218 570.354 176.379 577.406 174.438C603.309 167.305 629.295 159.938 656 156.5C664.6 155.369 670.631 147.475 669.5 138.875C668.51 131.35 662.35 125.769 655.062 125.25Z" fill="#01aaff" stroke="none"/>
</g>
<g opacity="1">
<path d="M675.938 54.9375C674.152 55.2351 672.44 55.8547 670.844 56.7812C669.803 57.3854 668.865 58.1374 668 58.9688C665.903 60.9839 664.461 63.6584 663.844 66.5C663.465 68.2421 663.307 70.0472 663.094 71.8125C662.812 74.1413 662.537 76.4494 662.281 78.7812C660.682 93.3752 659.785 108.089 657.469 122.594C655.928 132.24 653.939 141.81 652.125 151.406C649.684 164.319 647.162 177.181 644.406 190.031C639.403 213.36 633.964 236.593 629.031 259.938C625.338 277.416 622.332 295.048 619.156 312.625C617.265 323.093 615.136 333.515 613.344 344C610.875 358.446 608.875 372.948 606.688 387.438C605.963 392.233 605.219 397.062 604.375 401.844C599.551 405.198 596.788 411.099 597.812 417.281C597.743 418.053 597.783 418.939 597.781 419.688C597.775 422.517 597.989 425.372 598.938 428.062C599.477 429.593 600.24 431.214 601.188 432.531C601.855 433.459 602.578 434.369 603.406 435.156C604.304 436.01 605.286 436.761 606.344 437.406C607.441 438.075 608.596 438.648 609.812 439.062C611.008 439.47 612.278 439.718 613.531 439.875C614.577 440.006 615.636 440.008 616.688 439.938C617.694 439.87 618.71 439.721 619.688 439.469C620.811 439.178 621.918 438.804 622.969 438.312C624.007 437.827 624.981 437.208 625.906 436.531C626.792 435.884 627.625 435.144 628.375 434.344C629.077 433.595 629.701 432.773 630.25 431.906C630.855 430.95 631.372 429.948 631.812 428.906C632.587 427.075 632.975 425.067 633.219 423.094C633.427 421.407 633.383 419.694 633.344 418C633.336 417.668 633.32 417.332 633.312 417C633.312 416.989 633.313 416.98 633.312 416.969C633.979 414.264 634.565 411.522 635.031 408.781C635.975 403.238 636.827 397.655 637.656 392.094C640.076 375.866 642.28 359.593 645.156 343.438C646.932 333.467 648.799 323.51 650.531 313.531C653.274 297.726 655.93 281.91 659.125 266.188C663.87 242.834 669.12 219.588 673.938 196.25C676.639 183.164 679.126 170.044 681.562 156.906C683.27 147.701 685.128 138.525 686.625 129.281C688.256 119.209 689.211 109.088 690.188 98.9375C690.629 94.3426 691.174 89.7461 691.656 85.1562C692.482 83.3601 692.955 81.3524 693 79.25C693.046 77.1333 693.141 75.0218 693.219 72.9062C693.33 69.8834 693.432 66.8705 692.188 64.0312C691.889 63.3516 691.6 62.6479 691.188 62.0312C690.472 60.962 689.703 59.9291 688.812 59C688.132 58.2897 687.298 57.7409 686.531 57.125C686.524 57.1202 686.508 57.1298 686.5 57.125C686.328 57.0168 686.147 56.9116 685.969 56.8125C685.553 56.581 685.151 56.324 684.719 56.125C683.646 55.6309 682.537 55.2612 681.375 55.0312C679.565 54.673 677.723 54.6399 675.938 54.9375Z" fill="#01aaff" stroke="none"/>
</g>
<g opacity="1">
<path d="M761.969 30.5625C760.927 30.4941 759.856 30.5402 758.781 30.6875C753.757 31.3867 748.771 32.2345 743.812 33.3125C734.658 35.3027 725.644 37.8993 716.531 40.0625C710.049 41.6013 703.509 42.8758 696.938 43.9688C681.767 46.4919 666.457 48.1459 651.375 51.1875C639.303 53.6221 627.491 57.2185 615.688 60.6875C614.54 61.0247 613.362 61.474 612.188 61.7188C610.364 62.099 608.41 62.1024 606.562 62.3125C603.595 62.6501 600.629 63.2886 597.875 64.4688C595.146 65.6382 592.406 67.3043 590.406 69.5312C589.712 70.3046 588.976 71.0797 588.438 71.9688C587.685 73.212 586.97 74.511 586.562 75.9062C586.087 77.5377 585.776 79.2385 585.812 80.9375C585.849 82.6484 586.229 84.3804 586.781 86C587.258 87.3982 588.049 88.6504 588.875 89.875C589.462 90.7446 590.214 91.4903 590.969 92.2188C592.559 93.7532 594.598 94.8786 596.625 95.7188C598.002 96.2894 599.416 96.7051 600.844 97.125C601.302 97.2599 601.764 97.3833 602.219 97.5312C609.451 100.934 618.123 98.0154 621.781 90.8438C621.948 90.5167 622.047 90.1767 622.188 89.8438C622.787 89.6696 623.4 89.515 624 89.3438C626.852 88.5294 629.68 87.7216 632.531 86.9062C640.639 84.588 648.826 82.4014 657.125 80.875C664.503 79.518 671.938 78.5646 679.375 77.5938C692.341 75.901 705.339 74.3297 718.156 71.6875C728.988 69.4546 739.592 66.2738 750.406 63.9688C754.592 63.0766 758.823 62.385 763.062 61.8125C771.657 60.6343 777.647 52.7191 776.469 44.125C775.438 36.6051 769.258 31.0414 761.969 30.5625Z" fill="#01aaff" stroke="none"/>
</g>
<g opacity="1">
<path d="M726.906 139.5C719.994 139.266 713.647 143.888 711.969 150.875C708.021 167.235 703.973 183.584 699.75 199.875C694.639 219.59 689.35 239.251 684.25 258.969C679.572 277.054 675.109 295.194 670.688 313.344C668.652 321.776 673.849 330.277 682.281 332.312C690.714 334.348 699.183 329.151 701.219 320.719C714.219 266.371 727.879 212.193 740.875 157.844C742.793 149.858 737.861 141.824 729.875 139.906C728.877 139.666 727.894 139.533 726.906 139.5Z" fill="#01aaff" stroke="none"/>
</g>
<g opacity="1">
<path d="M775.312 115.219C771.177 115.095 767.055 115.215 762.906 115.562C751.591 116.51 740.526 119.172 729.625 122.25C724.441 123.714 719.13 125.052 714.094 126.969C711.517 127.949 709.032 129.068 706.5 130.156C704.647 130.953 702.736 131.787 700.75 132.188C698.619 132.617 696.205 132.602 694.031 132.719C693.709 132.736 693.385 132.704 693.062 132.719C689.485 129.845 684.645 128.617 679.875 129.906C677.023 130.688 674.032 130.95 671.188 131.781C670.073 132.107 668.836 132.441 667.844 133.062C666.765 133.737 665.742 134.508 664.688 135.219C664.027 135.663 663.429 136.425 662.938 137.031C661.197 139.178 660.173 141.633 659.688 144.344C659.628 144.675 659.598 145.009 659.562 145.344C659.562 145.344 659.563 145.373 659.562 145.375C659.561 145.396 659.548 145.405 659.562 145.406C659.554 145.53 659.567 145.657 659.562 145.781C659.552 146.076 659.528 146.362 659.531 146.656C659.541 147.384 659.602 148.125 659.719 148.844C660.077 151.056 660.896 153.018 662.094 154.906C662.282 155.203 662.461 155.543 662.719 155.781C664.261 157.209 665.689 158.86 667.562 159.812C671.108 161.615 675.224 161.953 679.125 162.312C685.363 162.888 691.624 162.853 697.875 162.5C702.411 162.244 706.837 161.834 711.219 160.562C714.188 159.701 717.076 158.568 719.938 157.406C721.929 156.598 723.912 155.727 725.969 155.094C727.68 154.567 729.425 154.144 731.156 153.688C734.154 152.896 737.149 152.129 740.156 151.375C749.157 149.119 758.299 147.072 767.594 146.594C772.974 146.317 778.292 146.664 783.625 147.375C792.226 148.5 800.125 142.445 801.25 133.844C802.375 125.242 796.32 117.344 787.719 116.219C783.593 115.69 779.448 115.343 775.312 115.219Z" fill="#01aaff" stroke="none"/>
</g>
<g opacity="1">
<path d="M768.656 163.188C762.887 163.738 757.724 167.656 755.875 173.531C747.757 199.232 742.165 225.596 735.25 251.625C730.546 269.331 725.271 286.885 720.812 304.656C717.272 318.767 714.269 332.993 712.062 347.375C710.764 355.952 716.673 363.951 725.25 365.25C733.827 366.549 741.827 360.67 743.125 352.094C747.62 322.002 756.283 292.789 763.719 263.344C770.532 236.363 775.88 209.017 784.219 182.438C786.685 174.604 782.334 166.279 774.5 163.812C772.542 163.196 770.579 163.004 768.656 163.188Z" fill="#01aaff" stroke="none"/>
</g>
<g opacity="1">
<path d="M819.938 291.688C817.903 291.532 815.806 291.778 813.75 292.469C804.849 295.488 796.055 298.754 787.406 302.438C774.053 308.125 761.096 314.757 748.438 321.844C743.431 324.647 738.528 327.625 733.656 330.656C726.625 335.031 719.687 339.516 712.156 343C704.698 346.439 701.436 355.261 704.875 362.719C708.314 370.177 717.135 373.439 724.594 370C737.066 364.267 748.273 356.337 760.312 349.812C780.588 338.825 801.867 329.521 823.75 322.25C831.973 319.489 836.417 310.567 833.656 302.344C831.585 296.176 826.041 292.154 819.938 291.688Z" fill="#01aaff" stroke="none"/>
</g>
<g opacity="1">
<path d="M825.469 234.938C822.447 235.092 819.412 236.138 816.812 238.094C815.263 239.269 813.757 240.49 812.25 241.719C811.467 242.357 810.683 243.087 809.781 243.562C808.451 244.264 806.968 244.784 805.562 245.312C803.182 246.208 800.771 247.022 798.344 247.781C795.338 248.721 792.302 249.61 789.281 250.5C787.766 250.947 786.258 251.392 784.719 251.75C779.246 253.023 773.667 253.615 768.312 255.406C764.398 256.715 760.672 258.604 757.031 260.531C748.797 264.891 741.048 270.086 732.969 274.719C725.837 278.791 723.365 287.868 727.438 295C731.51 302.132 740.587 304.604 747.719 300.531C753.98 296.971 760.065 293.09 766.344 289.562C768.55 288.323 770.764 287.155 773.062 286.094C774.388 285.482 775.731 284.816 777.125 284.375C780.307 283.369 783.688 283.083 786.969 282.562C789.736 282.124 792.464 281.598 795.188 280.938C801.557 279.392 807.965 277.59 814.156 275.438C817.522 274.267 820.95 273.037 824.125 271.406C828.39 269.215 831.907 266.034 835.719 263.188C842.649 257.971 844.029 248.118 838.812 241.188C835.552 236.856 830.504 234.68 825.469 234.938Z" fill="#01aaff" stroke="none"/>
</g>
<g opacity="1">
<path d="M850 159.188C848.96 159.102 847.889 159.121 846.812 159.25C839.065 160.203 831.348 161.206 823.625 162.344C809.344 164.448 795.13 167.019 780.875 169.281C778.878 169.598 776.889 169.94 774.875 170.125C771.652 170.421 768.409 170.532 765.188 170.844C759.779 171.368 754.418 172.364 749.406 174.531C744.706 176.564 740.457 179.489 736.531 182.75C732.614 186.004 729.066 189.663 725.062 192.812C718.603 197.884 717.459 207.228 722.531 213.688C727.603 220.147 736.947 221.259 743.406 216.188C746.875 213.468 750.078 210.481 753.375 207.562C755.734 205.474 758.242 203.256 761.188 202.031C762.997 201.279 765.032 201.011 766.969 200.844C769.21 200.65 771.441 200.599 773.688 200.5C778.548 200.286 783.338 199.69 788.156 199.031C805.211 196.701 822.203 193.935 839.281 191.781C843.036 191.308 846.804 190.878 850.562 190.438C859.175 189.403 865.315 181.581 864.281 172.969C863.376 165.433 857.281 159.788 850 159.188Z" fill="#01aaff" stroke="none"/>
</g>
<g opacity="1">
<path d="M896 72.9062C889.066 72.8921 882.464 76.6904 879.5 83.0625C878.813 84.5386 878.3 86.3184 878.094 87.9375C877.65 91.4169 878.449 94.6549 879.531 97.875C879.516 97.9986 879.486 98.1266 879.469 98.25C879.263 99.7375 878.98 101.209 878.719 102.688C878.127 106.035 877.546 109.367 876.812 112.688C874.442 123.412 871 133.852 867.406 144.219C851.94 188.834 834.458 232.72 818.75 277.25C812.844 293.994 807.023 310.808 801.906 327.812C797.791 341.488 794.807 355.466 791.344 369.312C789.349 377.279 794.189 385.349 802.156 387.344C810.123 389.338 818.193 384.498 820.188 376.531C823.543 363.14 826.427 349.634 830.406 336.406C834.714 322.089 839.58 307.929 844.5 293.812C848.021 283.711 851.653 273.633 855.344 263.594C855.969 264.313 856.578 265.047 857.188 265.781C860.091 269.279 862.73 273.025 865.375 276.719C869.329 282.24 873.202 287.85 876.875 293.562C887.827 310.597 896.708 328.86 905.188 347.219C910.631 359.003 915.964 370.823 921.438 382.594C924.825 389.878 928.327 397.138 932.062 404.25C933.671 407.312 935.385 410.317 937 413.375C938.625 416.452 940.212 419.578 941.344 422.875C941.626 423.699 941.871 424.553 942.062 425.406C941.761 425.635 941.458 425.866 941.156 426.094C934.26 431.356 932.956 441.229 938.219 448.125C943.481 455.021 953.323 456.325 960.219 451.062C961.449 450.1 962.818 449.323 964.062 448.375C966.162 446.775 968.032 444.922 969.5 442.719C974.449 435.29 974.538 425.752 972.438 417.375C970.097 408.038 965.272 399.621 960.688 391.25C959.055 388.269 957.561 385.222 956.031 382.188C949.286 368.805 943.236 355.061 937 341.438C928.609 323.106 919.971 304.853 909.781 287.438C902.667 275.279 894.656 263.619 886.219 252.344C884.894 250.574 883.542 248.818 882.156 247.094C890.249 245.966 898.261 244.326 906.094 241.969C914.176 239.536 922.087 236.432 929.531 232.438C942.669 225.387 954.354 215.371 961.656 202.219C964.154 197.72 966.103 192.941 967.531 188C974.577 163.622 967.816 137.957 953.375 117.656C948.929 111.406 943.759 105.665 938.031 100.562C935.105 97.9562 931.937 95.6726 928.938 93.1562C925.412 90.1989 922.675 86.441 919.25 83.375C916.919 81.2882 914.338 79.4792 911.562 78.0312C910.435 77.4432 909.264 76.9677 908.125 76.4062C904.286 74.5132 900.356 72.9152 896 72.9062ZM907.281 114.344C907.982 114.998 908.578 115.752 909.312 116.375C912.45 119.034 915.839 121.404 918.844 124.219C932.794 137.286 943.039 157.394 938.688 176.844C938.117 179.392 937.303 181.891 936.25 184.281C930.216 197.984 915.949 205.8 902.469 210.562C899.836 211.492 897.192 212.322 894.5 213.062C891.379 213.922 888.213 214.677 885.031 215.281C880.974 216.051 876.86 216.486 872.75 216.875C878.8 200.776 884.879 184.699 890.656 168.5C896.998 150.718 903.654 132.923 907.281 114.344Z" fill="#01aaff" stroke="none"/>
</g>
</g>
</svg>
