<?xml version="1.0" encoding="UTF-8" standalone="no"?>
<!DOCTYPE svg PUBLIC "-//W3C//DTD SVG 1.1//EN" "http://www.w3.org/Graphics/SVG/1.1/DTD/svg11.dtd">
<!-- Created with Vectornator (http://vectornator.io/) -->
<svg height="100%" stroke-miterlimit="10" style="fill-rule:nonzero;clip-rule:evenodd;stroke-linecap:round;stroke-linejoin:round;" version="1.1" viewBox="0 0 1000 500" width="100%" xml:space="preserve" xmlns="http://www.w3.org/2000/svg" xmlns:vectornator="http://vectornator.io" xmlns:xlink="http://www.w3.org/1999/xlink">
<defs/>
<g id="Ebene-1" vectornator:layerName="Ebene 1">
<g opacity="1">
<path d="M236.469 82.75C227.923 83.0538 219.203 86.0169 211.656 89.2812C209.108 90.3836 206.605 91.5651 204.125 92.8125C154.087 117.977 116.405 160.774 84.125 205.531C73.4444 220.34 61.3861 234.688 55.375 252.188C55.1242 252.918 54.6945 253.613 54.375 254.312C53.9791 255.18 53.5208 256.167 53.2188 257.062C51.6843 261.61 51.5222 266.496 53.3125 271C56.2467 278.382 63.248 282.456 70.875 283.5C73.3836 283.843 75.8808 283.869 78.375 283.375C80.1275 283.028 81.8309 282.396 83.4375 281.625C84.4848 281.122 85.4645 280.347 86.5312 279.906C89.1447 278.826 91.7918 277.817 94.3438 276.594C98.2396 274.727 101.696 272.229 105.375 270C107.244 268.867 109.213 267.904 111.156 266.906C115.088 264.888 119.042 262.964 122.969 260.938C132.589 255.972 142.105 250.83 151.875 246.156C172.984 236.058 194.916 227.192 217.781 221.969C227.41 219.769 237.195 218.25 247.062 217.719C251.648 217.472 256.262 217.406 260.844 217.75C264.435 218.019 268.019 218.555 271.406 219.812C272.076 220.061 273.66 220.754 273.75 221.312C274.015 222.945 273.621 224.761 273.25 226.344C272.554 229.314 271.394 232.168 270.062 234.906C264.951 245.416 257.338 254.647 249.812 263.5C230.999 285.634 208.995 304.675 186.062 322.406C171.582 333.603 156.913 344.75 140.625 353.219C137.8 354.688 134.941 356.081 132.031 357.375C129.76 358.385 127.461 359.351 125.156 360.281C118.261 363.066 111.085 365.16 103.562 364.688C99.2376 364.416 94.9515 363.213 91.5312 360.469C90.3795 359.545 89.3556 358.468 88.4375 357.312C86.7663 355.209 85.4663 352.819 84.4375 350.344C82.6118 345.951 81.64 341.291 81 336.594C79.8208 328 71.9065 322.008 63.3125 323.188C54.7185 324.367 48.6958 332.281 49.875 340.875C51.0628 349.482 53.2015 357.962 57 365.812C59.4446 370.865 62.536 375.618 66.3438 379.75C69.3879 383.053 72.8715 385.941 76.6875 388.312C89.8313 396.482 106.091 397.665 120.969 394.438C127.605 392.998 133.979 390.607 140.219 387.969C149.468 384.059 158.411 379.517 167 374.312C180.382 366.203 192.861 356.727 205.219 347.156C220.951 334.972 236.3 322.204 250.562 308.312C258.913 300.179 266.834 291.665 274.344 282.75C282.613 272.934 290.553 262.698 296.562 251.312C300.85 243.19 304.127 234.261 304.719 225.031C305.003 220.593 304.59 216.13 303.25 211.875C302.306 208.877 300.923 206.047 299.125 203.469C289.85 190.166 272.559 187.001 257.406 186.688C254.979 186.637 252.552 186.65 250.125 186.719C246.957 186.809 243.783 186.988 240.625 187.25C225.328 188.52 210.23 191.73 195.531 196.094C166.385 204.747 138.988 218.02 112.219 232.25C106.698 235.185 101.086 237.942 95.5625 240.875C97.7813 237.734 100.074 234.631 102.344 231.531C105.927 226.638 109.433 221.664 113.031 216.781C137.439 183.654 165.215 151.254 200.344 129.125C204.216 126.686 208.172 124.414 212.188 122.219C216.846 119.672 221.609 117.267 226.562 115.344C229.258 114.297 232.026 113.372 234.875 112.844C235.426 112.742 236 112.808 236.562 112.75C236.273 114.783 235.767 116.779 235.156 118.719C234.496 120.816 233.785 122.903 233.031 124.969C230.513 131.875 227.688 138.676 225.375 145.656C223.871 150.195 222.63 154.788 221.656 159.469C219.985 167.51 225.147 175.392 233.188 177.062C241.228 178.733 249.11 173.572 250.781 165.531C253.223 153.757 258.387 142.821 262.281 131.5C265.089 123.338 267.493 114.718 266.344 106C265.889 102.551 264.756 99.2516 263 96.25C261.63 93.909 259.911 91.7659 257.906 89.9375C255.963 88.1654 253.751 86.6895 251.375 85.5625C246.645 83.3192 241.596 82.5677 236.469 82.75Z" fill="#01aaff" stroke="none"/>
</g>
<g opacity="1">
<path d="M357.719 102.031C355.662 101.982 353.679 102.957 351.781 103.75C350.692 104.205 349.805 105.022 348.875 105.75C346.55 107.572 344.978 110.462 343.594 113C340.719 118.269 338.682 123.917 336.875 129.625C335.671 133.428 334.581 137.27 333.25 141.031C331.867 144.94 330.291 148.771 328.844 152.656C326.044 160.172 323.299 167.731 320.594 175.281C318.384 181.448 316.067 187.565 314 193.781C311.204 202.189 308.792 210.715 305.906 219.094C297.831 242.539 289.343 265.855 281.125 289.25C274.947 306.838 268.872 324.443 262.875 342.094C261.997 344.678 261.201 347.292 260.312 349.875C256.456 352.013 253.471 355.688 252.5 360.344C251.931 363.095 251.261 365.802 250.906 368.594C249.488 373.407 249.277 378.663 251.406 383.312C252.782 386.318 255.046 389.036 257.875 390.781C258.759 391.327 259.653 391.853 260.625 392.219C261.883 392.693 263.168 393.101 264.5 393.281C265.926 393.474 267.415 393.514 268.844 393.344C270.242 393.177 271.592 392.787 272.906 392.281C274.092 391.824 275.244 391.203 276.281 390.469C277.35 389.713 278.291 388.798 279.188 387.844C279.864 387.125 280.438 386.301 280.969 385.469C282.018 383.824 282.732 382.007 283.312 380.156C283.47 379.656 283.667 378.992 283.812 378.469C283.868 378.268 283.858 378.262 283.906 378.094C283.91 378.08 283.911 378.018 283.906 378.031C284.038 377.704 284.193 377.394 284.312 377.062C284.696 375.995 284.916 375.25 285.219 374.188C286.108 371.062 287.186 368.019 288.219 364.938C292.53 352.071 296.859 339.215 301.25 326.375C308.217 306.002 315.22 285.643 322.219 265.281C326.389 253.149 330.625 241.012 334.688 228.844C337.258 221.144 339.453 213.34 341.875 205.594C343.81 199.406 345.998 193.3 348.156 187.188C351.005 179.118 353.923 171.064 356.875 163.031C358.363 158.982 359.954 154.98 361.375 150.906C361.816 149.643 362.193 148.344 362.594 147.062C366.435 144.939 369.351 141.198 370.125 136.531C370.865 132.048 372.246 127.67 373.156 123.219C373.565 121.218 373.94 119.176 373.875 117.125C373.858 116.603 373.852 116.08 373.781 115.562C373.676 114.79 373.586 113.991 373.344 113.25C372.924 111.963 372.596 110.581 371.781 109.5C370.256 107.476 368.677 105.279 366.438 104.094C363.796 102.696 360.707 102.102 357.719 102.031Z" fill="#01aaff" stroke="none"/>
</g>
<g opacity="1">
<path d="M392.844 161.344C390.082 161.393 387.324 161.536 384.562 161.812C374.838 162.785 365.307 165.004 355.719 166.812C341.824 169.433 327.786 171.555 313.719 173C308.41 173.545 303.085 173.891 297.781 174.469C293.356 174.951 288.986 175.719 284.531 175.875C284.332 175.882 284.137 175.929 283.938 175.938C279.595 170.484 271.885 168.661 265.469 172C264.722 172.438 262.677 173.028 261.625 173.406C258.623 174.485 255.418 175.737 253.062 177.969C252.236 178.751 251.356 179.506 250.75 180.469C249.728 182.094 248.72 183.803 248.219 185.656C247.719 187.502 247.577 189.473 247.781 191.375C247.978 193.211 248.681 194.958 249.406 196.656C249.841 197.674 250.534 198.568 251.219 199.438C251.742 200.101 252.372 200.685 253 201.25C255.112 203.151 257.819 204.289 260.5 205.125C264.316 206.315 268.329 206.722 272.312 206.656C275.736 206.6 279.122 206.143 282.531 205.875C285.207 205.665 287.885 205.721 290.562 205.5C293.978 205.218 297.368 204.709 300.781 204.406C306.436 203.905 312.124 203.654 317.781 203.156C329.102 202.161 340.394 200.801 351.625 199.062C358.361 198.02 365.055 196.81 371.75 195.531C380.725 193.817 389.768 192.196 398.938 192.875C407.591 193.483 415.11 186.966 415.719 178.312C416.327 169.659 409.809 162.14 401.156 161.531C398.387 161.345 395.605 161.295 392.844 161.344Z" fill="#01aaff" stroke="none"/>
</g>
<g opacity="1">
<path d="M436.594 94.3125C430.428 93.9688 424.408 97.1322 420.875 102.531C419.799 104.175 419.011 105.978 418.406 107.844C417.8 109.714 417.418 111.585 416.719 113.375C413.477 121.673 410.437 130.072 407.375 138.438C403.352 149.428 399.19 160.361 395.062 171.312C390.38 183.736 385.793 196.182 381.25 208.656C372.099 233.783 363.513 259.183 356.188 284.906C354.605 290.463 353.059 296.026 351.406 301.562C350.957 303.067 350.428 304.558 349.969 306.062C343.775 308.804 339.809 315.283 340.719 322.344C340.728 322.378 340.747 322.504 340.75 322.469C340.751 322.479 340.75 322.49 340.75 322.5C340.747 322.702 340.722 322.892 340.719 323.094C340.714 323.413 340.72 323.743 340.719 324.062C340.713 325.746 340.796 327.433 341.094 329.094C341.775 332.892 343.442 336.454 346.094 339.281C346.541 339.759 346.989 340.216 347.5 340.625C348.317 341.28 349.135 341.952 350.062 342.438C351.406 343.14 352.801 343.828 354.281 344.156C356.05 344.548 357.884 344.765 359.688 344.594C361.515 344.42 363.316 343.888 365 343.156C366.437 342.532 367.754 341.589 368.938 340.562C370.026 339.619 370.904 338.447 371.75 337.281C372.316 336.503 372.75 335.654 373.156 334.781C373.882 333.223 374.301 331.517 374.656 329.844C374.724 329.526 374.782 329.225 374.844 328.906C375.217 328.072 375.573 327.209 375.938 326.375C378.199 321.198 379.808 315.911 381.406 310.5C385.281 297.381 388.857 284.172 392.875 271.094C403.531 236.41 415.676 202.174 428.281 168.156C432.313 157.275 436.186 146.33 440.188 135.438C440.898 133.505 441.619 131.584 442.344 129.656C444.437 129.285 446.494 128.529 448.344 127.219C454.753 122.678 456.42 113.986 452.406 107.375C452.223 107.073 452.082 106.761 451.875 106.469C452.053 106.747 452.218 107.022 452.375 107.312C452.286 107.106 452.214 106.894 452.125 106.688C452 106.395 451.88 106.103 451.75 105.812C451.352 104.925 450.841 103.843 450.344 103.031C448.486 99.996 446.009 97.4106 442.75 95.875C440.749 94.9325 438.649 94.4271 436.594 94.3125Z" fill="#01aaff" stroke="none"/>
</g>
<g opacity="1">
<path d="M609.906 89.375C604.088 89.4326 598.306 89.9447 592.75 90.8125C588.852 91.4212 584.978 92.2083 581.156 93.1875C578.991 93.3552 576.848 93.7082 574.719 94.1562C571.844 94.7611 568.983 95.4824 566.156 96.2812C557.584 98.7038 549.271 101.908 540.938 105.031C536.22 106.799 531.36 108.253 526.812 110.438C522.345 112.584 518.193 115.348 514.188 118.25C507.607 123.017 500.988 127.744 494.562 132.719C486.967 138.599 479.603 144.787 472.469 151.219C441.274 179.343 414.494 212.532 394.062 249.25C389.115 258.141 384.601 267.245 380.375 276.5C375.586 286.987 371.425 297.505 368.438 308.656C367.168 313.395 366.018 318.177 364.969 322.969C364.201 326.474 363.528 329.992 362.938 333.531C359.426 354.578 359.174 379.315 374.812 395.875C376.789 397.968 378.962 399.871 381.312 401.531C384.056 403.469 387.026 405.135 390.094 406.5C413.145 416.753 439.785 409.209 461.531 399.188C465.688 397.272 469.785 395.205 473.812 393.031C478.832 390.322 483.747 387.444 488.594 384.438C511.537 370.204 532.28 352.918 552.188 334.75C575.565 313.415 597.647 290.697 617.656 266.156C629.929 251.104 641.835 235.663 651.812 218.969C660.476 204.471 667.652 188.92 672.406 172.688C675.275 162.891 677.368 152.568 676.719 142.312C676.311 135.882 674.778 129.456 672.25 123.531C670.574 119.604 668.43 115.868 665.844 112.469C663.673 109.615 661.185 106.997 658.469 104.656C645.175 93.2011 627.361 89.2023 609.906 89.375ZM609.562 120.781C613.973 120.708 618.399 120.969 622.719 121.781C627.603 122.7 632.5 124.313 636.562 127.25C638.037 128.316 639.384 129.586 640.531 131C647.73 139.869 645.702 151.809 642.938 161.938C642.395 163.925 641.798 165.886 641.156 167.844C640.411 170.119 639.6 172.387 638.75 174.625C637.53 177.836 636.221 181.023 634.812 184.156C627.616 200.165 617.858 214.836 607.312 228.812C600.116 238.351 592.627 247.688 584.875 256.781C567.224 277.487 548.028 296.799 527.844 315.031C511.104 330.152 493.805 344.669 474.75 356.812C465.745 362.551 456.434 367.9 446.688 372.281C439.317 375.594 431.648 378.381 423.688 379.875C415.437 381.424 405.645 381.716 398.562 376.438C392.943 372.25 391.66 364.411 391.344 357.875C391.004 350.847 391.851 343.792 393.031 336.875C394.38 328.972 396.251 321.087 398.438 313.375C400.987 304.381 404.595 295.804 408.469 287.312C412.114 279.322 416.024 271.495 420.281 263.812C441.801 224.977 471.071 190.305 505.406 162.188C512.325 156.522 519.515 151.249 526.75 146C530.628 143.186 534.385 140.16 538.594 137.844C540.848 136.603 543.31 135.872 545.719 135C548.232 134.09 550.747 133.159 553.25 132.219C557.123 130.764 561 129.306 564.906 127.938C568.581 129.368 572.768 129.437 576.688 127.781C578.873 128.844 579.464 129.048 578.875 128.844C578.271 128.634 577.823 127.992 577.656 127.375C577.585 127.109 578.151 127.167 578.406 127.062C579.036 126.806 579.675 126.582 580.312 126.344C580.336 126.476 580.351 126.623 580.375 126.75C580.48 127.318 581.053 127.967 580.719 128.438C580.358 128.946 580.705 128.448 581.062 129.906C583.039 137.878 591.122 142.726 599.094 140.75C607.065 138.774 611.914 130.721 609.938 122.75C609.773 122.101 609.685 121.438 609.562 120.781Z" fill="#01aaff" stroke="none"/>
</g>
<g opacity="1">
<path d="M818.781 86.625C798.956 86.5156 779.165 87.982 759.469 90.1562C745.361 91.7137 731.325 93.7129 717.219 95.2812C713.605 95.683 709.965 96.0409 706.344 96.375C704.516 96.5437 702.678 96.7466 700.844 96.8125C693.423 97.079 685.094 97.1301 679.312 102.531C674.31 107.205 672.82 113.849 673.844 120.438C673.969 121.245 674.095 122.197 674.344 123C674.358 124.372 674.436 125.753 674.406 127.125C674.349 129.733 674.079 132.348 673.781 134.938C672.657 144.726 670.515 154.392 668.375 164C661.543 194.681 650.109 224.009 639.625 253.562C637.375 259.906 635.214 266.268 633.094 272.656C628.719 273.078 624.317 273.387 619.906 273.5C611.235 273.725 604.4 280.922 604.625 289.594C604.85 298.265 612.047 305.132 620.719 304.906C621.333 304.89 621.948 304.833 622.562 304.812C621.527 307.897 620.538 310.999 619.438 314.062C614.411 328.055 609.123 341.96 604.781 356.188C604.062 358.544 603.353 360.909 602.688 363.281C602.329 364.558 601.83 365.923 601.688 367.25C601.331 370.567 601.215 372.924 602.719 376.188C604.544 380.149 608.006 383.193 612.219 384.406C613.061 384.649 613.945 384.746 614.812 384.875C615.222 384.936 615.618 384.944 616.031 384.969C616.042 384.968 616.052 384.969 616.062 384.969C616.822 384.926 617.596 384.951 618.344 384.812C620.361 384.439 622.353 383.784 624.125 382.75C629.235 379.767 630.767 373.994 633.094 368.969C634.173 366.634 634.533 364.179 634.375 361.781C635.374 358.575 636.283 355.338 637.375 352.156C641.276 340.793 645.592 329.568 649.531 318.219C651.472 312.628 653.235 306.982 655.031 301.344C669.291 298.831 683.357 295.252 697.281 291.312C706.932 288.582 716.54 285.735 726.125 282.781C767.442 270.05 808.212 255.017 846.812 235.438C855.914 230.821 864.876 225.936 873.719 220.844C877.264 218.802 880.81 216.761 884.281 214.594C889.036 211.624 893.672 208.446 898.188 205.125C910.645 195.964 923.125 185.013 931.094 171.594C938.509 159.106 941.224 144.67 935.531 130.938C933.776 126.704 931.325 122.824 928.469 119.25C917.505 105.531 901.501 98.3425 884.844 94.1562C863.326 88.7487 840.923 86.7472 818.781 86.625ZM703.5 115.719C703.498 115.708 703.531 115.739 703.531 115.75C703.534 115.801 703.527 115.856 703.531 115.906C703.519 115.844 703.512 115.781 703.5 115.719ZM813.094 117.062C830.734 116.943 848.347 118.116 865.719 121.375C874.017 122.932 882.432 124.762 890.188 128.188C895.816 130.674 901.077 134.12 904.812 139.094C905.953 140.612 906.998 142.236 907.469 144.094C908.688 148.905 905.588 154.301 903 158.031C902.42 158.868 901.878 159.636 901.25 160.438C900.634 161.224 899.903 162.121 899.25 162.875C894.324 168.56 888.533 173.487 882.562 178.031C877.821 181.64 872.906 185.075 867.844 188.219C862.23 191.705 856.402 194.921 850.625 198.125C806.196 222.765 758.297 240.428 709.75 255.031C695.519 259.312 681.148 263.559 666.594 266.938C667.507 264.35 668.353 261.738 669.281 259.156C677.716 235.703 686.638 212.354 693.188 188.281C695.223 180.8 697.017 173.289 698.688 165.719C700.168 159.005 701.537 152.263 702.594 145.469C703.332 140.721 703.902 135.92 704.219 131.125C704.316 129.658 704.371 128.174 704.406 126.688C708.386 126.449 712.385 126.088 716.344 125.688C731.028 124.203 745.643 122.149 760.312 120.531C777.782 118.604 795.454 117.182 813.094 117.062Z" fill="#01aaff" stroke="none"/>
</g>
</g>
</svg>
